<?xml version="1.0" encoding="utf-8"?>
<svg xmlns="http://www.w3.org/2000/svg" xmlns:xlink="http://www.w3.org/1999/xlink" width="600" height="400" viewBox="0 0 2400 1600">
<defs>
  <clipPath id="clip570">
    <rect x="0" y="0" width="2400" height="1600"/>
  </clipPath>
</defs>
<path clip-path="url(#clip570)" d="M0 1600 L2400 1600 L2400 0 L0 0  Z" fill="#ffffff" fill-rule="evenodd" fill-opacity="1"/>
<defs>
  <clipPath id="clip571">
    <rect x="250" y="123" width="2104" height="1301"/>
  </clipPath>
</defs>
<path clip-path="url(#clip570)" d="M250.028 1423.18 L2352.76 1423.18 L2352.76 123.472 L250.028 123.472  Z" fill="#ffffff" fill-rule="evenodd" fill-opacity="1"/>
<polyline clip-path="url(#clip571)" style="stroke:#000000; stroke-linecap:round; stroke-linejoin:round; stroke-width:2; stroke-opacity:0.1; fill:none" points="681.186,1423.18 681.186,123.472 "/>
<polyline clip-path="url(#clip571)" style="stroke:#000000; stroke-linecap:round; stroke-linejoin:round; stroke-width:2; stroke-opacity:0.1; fill:none" points="1158.27,1423.18 1158.27,123.472 "/>
<polyline clip-path="url(#clip571)" style="stroke:#000000; stroke-linecap:round; stroke-linejoin:round; stroke-width:2; stroke-opacity:0.1; fill:none" points="1635.35,1423.18 1635.35,123.472 "/>
<polyline clip-path="url(#clip571)" style="stroke:#000000; stroke-linecap:round; stroke-linejoin:round; stroke-width:2; stroke-opacity:0.1; fill:none" points="2112.43,1423.18 2112.43,123.472 "/>
<polyline clip-path="url(#clip571)" style="stroke:#000000; stroke-linecap:round; stroke-linejoin:round; stroke-width:2; stroke-opacity:0.1; fill:none" points="250.028,1386.4 2352.76,1386.4 "/>
<polyline clip-path="url(#clip571)" style="stroke:#000000; stroke-linecap:round; stroke-linejoin:round; stroke-width:2; stroke-opacity:0.1; fill:none" points="250.028,1096.81 2352.76,1096.81 "/>
<polyline clip-path="url(#clip571)" style="stroke:#000000; stroke-linecap:round; stroke-linejoin:round; stroke-width:2; stroke-opacity:0.1; fill:none" points="250.028,807.23 2352.76,807.23 "/>
<polyline clip-path="url(#clip571)" style="stroke:#000000; stroke-linecap:round; stroke-linejoin:round; stroke-width:2; stroke-opacity:0.1; fill:none" points="250.028,517.647 2352.76,517.647 "/>
<polyline clip-path="url(#clip571)" style="stroke:#000000; stroke-linecap:round; stroke-linejoin:round; stroke-width:2; stroke-opacity:0.1; fill:none" points="250.028,228.064 2352.76,228.064 "/>
<polyline clip-path="url(#clip570)" style="stroke:#000000; stroke-linecap:round; stroke-linejoin:round; stroke-width:4; stroke-opacity:1; fill:none" points="250.028,1423.18 2352.76,1423.18 "/>
<polyline clip-path="url(#clip570)" style="stroke:#000000; stroke-linecap:round; stroke-linejoin:round; stroke-width:4; stroke-opacity:1; fill:none" points="681.186,1423.18 681.186,1404.28 "/>
<polyline clip-path="url(#clip570)" style="stroke:#000000; stroke-linecap:round; stroke-linejoin:round; stroke-width:4; stroke-opacity:1; fill:none" points="1158.27,1423.18 1158.27,1404.28 "/>
<polyline clip-path="url(#clip570)" style="stroke:#000000; stroke-linecap:round; stroke-linejoin:round; stroke-width:4; stroke-opacity:1; fill:none" points="1635.35,1423.18 1635.35,1404.28 "/>
<polyline clip-path="url(#clip570)" style="stroke:#000000; stroke-linecap:round; stroke-linejoin:round; stroke-width:4; stroke-opacity:1; fill:none" points="2112.43,1423.18 2112.43,1404.28 "/>
<path clip-path="url(#clip570)" d="M652.424 1481.64 L668.744 1481.64 L668.744 1485.58 L646.8 1485.58 L646.8 1481.64 Q649.462 1478.89 654.045 1474.26 Q658.651 1469.61 659.832 1468.27 Q662.077 1465.74 662.957 1464.01 Q663.86 1462.25 663.86 1460.56 Q663.86 1457.8 661.915 1456.07 Q659.994 1454.33 656.892 1454.33 Q654.693 1454.33 652.239 1455.09 Q649.809 1455.86 647.031 1457.41 L647.031 1452.69 Q649.855 1451.55 652.309 1450.97 Q654.762 1450.39 656.799 1450.39 Q662.17 1450.39 665.364 1453.08 Q668.559 1455.77 668.559 1460.26 Q668.559 1462.39 667.748 1464.31 Q666.961 1466.2 664.855 1468.8 Q664.276 1469.47 661.174 1472.69 Q658.073 1475.88 652.424 1481.64 Z" fill="#000000" fill-rule="nonzero" fill-opacity="1" /><path clip-path="url(#clip570)" d="M678.559 1479.7 L683.443 1479.7 L683.443 1485.58 L678.559 1485.58 L678.559 1479.7 Z" fill="#000000" fill-rule="nonzero" fill-opacity="1" /><path clip-path="url(#clip570)" d="M703.628 1454.1 Q700.017 1454.1 698.188 1457.66 Q696.383 1461.2 696.383 1468.33 Q696.383 1475.44 698.188 1479.01 Q700.017 1482.55 703.628 1482.55 Q707.262 1482.55 709.068 1479.01 Q710.896 1475.44 710.896 1468.33 Q710.896 1461.2 709.068 1457.66 Q707.262 1454.1 703.628 1454.1 M703.628 1450.39 Q709.438 1450.39 712.494 1455 Q715.572 1459.58 715.572 1468.33 Q715.572 1477.06 712.494 1481.67 Q709.438 1486.25 703.628 1486.25 Q697.818 1486.25 694.739 1481.67 Q691.684 1477.06 691.684 1468.33 Q691.684 1459.58 694.739 1455 Q697.818 1450.39 703.628 1450.39 Z" fill="#000000" fill-rule="nonzero" fill-opacity="1" /><path clip-path="url(#clip570)" d="M1130 1481.64 L1146.32 1481.64 L1146.32 1485.58 L1124.38 1485.58 L1124.38 1481.64 Q1127.04 1478.89 1131.62 1474.26 Q1136.23 1469.61 1137.41 1468.27 Q1139.66 1465.74 1140.54 1464.01 Q1141.44 1462.25 1141.44 1460.56 Q1141.44 1457.8 1139.49 1456.07 Q1137.57 1454.33 1134.47 1454.33 Q1132.27 1454.33 1129.82 1455.09 Q1127.39 1455.86 1124.61 1457.41 L1124.61 1452.69 Q1127.43 1451.55 1129.89 1450.97 Q1132.34 1450.39 1134.38 1450.39 Q1139.75 1450.39 1142.94 1453.08 Q1146.14 1455.77 1146.14 1460.26 Q1146.14 1462.39 1145.33 1464.31 Q1144.54 1466.2 1142.43 1468.8 Q1141.86 1469.47 1138.75 1472.69 Q1135.65 1475.88 1130 1481.64 Z" fill="#000000" fill-rule="nonzero" fill-opacity="1" /><path clip-path="url(#clip570)" d="M1156.14 1479.7 L1161.02 1479.7 L1161.02 1485.58 L1156.14 1485.58 L1156.14 1479.7 Z" fill="#000000" fill-rule="nonzero" fill-opacity="1" /><path clip-path="url(#clip570)" d="M1171.25 1451.02 L1189.61 1451.02 L1189.61 1454.96 L1175.54 1454.96 L1175.54 1463.43 Q1176.55 1463.08 1177.57 1462.92 Q1178.59 1462.73 1179.61 1462.73 Q1185.4 1462.73 1188.78 1465.9 Q1192.16 1469.08 1192.16 1474.49 Q1192.16 1480.07 1188.68 1483.17 Q1185.21 1486.25 1178.89 1486.25 Q1176.72 1486.25 1174.45 1485.88 Q1172.2 1485.51 1169.8 1484.77 L1169.8 1480.07 Q1171.88 1481.2 1174.1 1481.76 Q1176.32 1482.32 1178.8 1482.32 Q1182.8 1482.32 1185.14 1480.21 Q1187.48 1478.1 1187.48 1474.49 Q1187.48 1470.88 1185.14 1468.77 Q1182.8 1466.67 1178.8 1466.67 Q1176.92 1466.67 1175.05 1467.08 Q1173.2 1467.5 1171.25 1468.38 L1171.25 1451.02 Z" fill="#000000" fill-rule="nonzero" fill-opacity="1" /><path clip-path="url(#clip570)" d="M1616.66 1466.95 Q1620.01 1467.66 1621.89 1469.93 Q1623.79 1472.2 1623.79 1475.53 Q1623.79 1480.65 1620.27 1483.45 Q1616.75 1486.25 1610.27 1486.25 Q1608.09 1486.25 1605.78 1485.81 Q1603.49 1485.39 1601.03 1484.54 L1601.03 1480.02 Q1602.98 1481.16 1605.29 1481.74 Q1607.61 1482.32 1610.13 1482.32 Q1614.53 1482.32 1616.82 1480.58 Q1619.13 1478.84 1619.13 1475.53 Q1619.13 1472.48 1616.98 1470.77 Q1614.85 1469.03 1611.03 1469.03 L1607 1469.03 L1607 1465.19 L1611.22 1465.19 Q1614.67 1465.19 1616.5 1463.82 Q1618.32 1462.43 1618.32 1459.84 Q1618.32 1457.18 1616.43 1455.77 Q1614.55 1454.33 1611.03 1454.33 Q1609.11 1454.33 1606.91 1454.75 Q1604.71 1455.16 1602.07 1456.04 L1602.07 1451.88 Q1604.74 1451.14 1607.05 1450.77 Q1609.39 1450.39 1611.45 1450.39 Q1616.77 1450.39 1619.87 1452.83 Q1622.98 1455.23 1622.98 1459.35 Q1622.98 1462.22 1621.33 1464.21 Q1619.69 1466.18 1616.66 1466.95 Z" fill="#000000" fill-rule="nonzero" fill-opacity="1" /><path clip-path="url(#clip570)" d="M1632.65 1479.7 L1637.54 1479.7 L1637.54 1485.58 L1632.65 1485.58 L1632.65 1479.7 Z" fill="#000000" fill-rule="nonzero" fill-opacity="1" /><path clip-path="url(#clip570)" d="M1657.72 1454.1 Q1654.11 1454.1 1652.28 1457.66 Q1650.48 1461.2 1650.48 1468.33 Q1650.48 1475.44 1652.28 1479.01 Q1654.11 1482.55 1657.72 1482.55 Q1661.36 1482.55 1663.16 1479.01 Q1664.99 1475.44 1664.99 1468.33 Q1664.99 1461.2 1663.16 1457.66 Q1661.36 1454.1 1657.72 1454.1 M1657.72 1450.39 Q1663.53 1450.39 1666.59 1455 Q1669.67 1459.58 1669.67 1468.33 Q1669.67 1477.06 1666.59 1481.67 Q1663.53 1486.25 1657.72 1486.25 Q1651.91 1486.25 1648.83 1481.67 Q1645.78 1477.06 1645.78 1468.33 Q1645.78 1459.58 1648.83 1455 Q1651.91 1450.39 1657.72 1450.39 Z" fill="#000000" fill-rule="nonzero" fill-opacity="1" /><path clip-path="url(#clip570)" d="M2094.24 1466.95 Q2097.59 1467.66 2099.47 1469.93 Q2101.37 1472.2 2101.37 1475.53 Q2101.37 1480.65 2097.85 1483.45 Q2094.33 1486.25 2087.85 1486.25 Q2085.67 1486.25 2083.36 1485.81 Q2081.07 1485.39 2078.61 1484.54 L2078.61 1480.02 Q2080.56 1481.16 2082.87 1481.74 Q2085.19 1482.32 2087.71 1482.32 Q2092.11 1482.32 2094.4 1480.58 Q2096.71 1478.84 2096.71 1475.53 Q2096.71 1472.48 2094.56 1470.77 Q2092.43 1469.03 2088.61 1469.03 L2084.58 1469.03 L2084.58 1465.19 L2088.8 1465.19 Q2092.25 1465.19 2094.07 1463.82 Q2095.9 1462.43 2095.9 1459.84 Q2095.9 1457.18 2094 1455.77 Q2092.13 1454.33 2088.61 1454.33 Q2086.69 1454.33 2084.49 1454.75 Q2082.29 1455.16 2079.65 1456.04 L2079.65 1451.88 Q2082.32 1451.14 2084.63 1450.77 Q2086.97 1450.39 2089.03 1450.39 Q2094.35 1450.39 2097.45 1452.83 Q2100.56 1455.23 2100.56 1459.35 Q2100.56 1462.22 2098.91 1464.21 Q2097.27 1466.18 2094.24 1466.95 Z" fill="#000000" fill-rule="nonzero" fill-opacity="1" /><path clip-path="url(#clip570)" d="M2110.23 1479.7 L2115.12 1479.7 L2115.12 1485.58 L2110.23 1485.58 L2110.23 1479.7 Z" fill="#000000" fill-rule="nonzero" fill-opacity="1" /><path clip-path="url(#clip570)" d="M2125.35 1451.02 L2143.7 1451.02 L2143.7 1454.96 L2129.63 1454.96 L2129.63 1463.43 Q2130.65 1463.08 2131.67 1462.92 Q2132.69 1462.73 2133.7 1462.73 Q2139.49 1462.73 2142.87 1465.9 Q2146.25 1469.08 2146.25 1474.49 Q2146.25 1480.07 2142.78 1483.17 Q2139.31 1486.25 2132.99 1486.25 Q2130.81 1486.25 2128.54 1485.88 Q2126.3 1485.51 2123.89 1484.77 L2123.89 1480.07 Q2125.97 1481.2 2128.19 1481.76 Q2130.42 1482.32 2132.89 1482.32 Q2136.9 1482.32 2139.24 1480.21 Q2141.57 1478.1 2141.57 1474.49 Q2141.57 1470.88 2139.24 1468.77 Q2136.9 1466.67 2132.89 1466.67 Q2131.02 1466.67 2129.14 1467.08 Q2127.29 1467.5 2125.35 1468.38 L2125.35 1451.02 Z" fill="#000000" fill-rule="nonzero" fill-opacity="1" /><path clip-path="url(#clip570)" d="M1060.96 1520.52 L1067.39 1520.52 L1067.39 1562.63 L1090.53 1562.63 L1090.53 1568.04 L1060.96 1568.04 L1060.96 1520.52 Z" fill="#000000" fill-rule="nonzero" fill-opacity="1" /><path clip-path="url(#clip570)" d="M1109.69 1536.5 Q1104.98 1536.5 1102.24 1540.19 Q1099.5 1543.85 1099.5 1550.25 Q1099.5 1556.65 1102.21 1560.34 Q1104.95 1564 1109.69 1564 Q1114.37 1564 1117.1 1560.31 Q1119.84 1556.62 1119.84 1550.25 Q1119.84 1543.92 1117.1 1540.23 Q1114.37 1536.5 1109.69 1536.5 M1109.69 1531.54 Q1117.33 1531.54 1121.69 1536.5 Q1126.05 1541.47 1126.05 1550.25 Q1126.05 1559 1121.69 1564 Q1117.33 1568.97 1109.69 1568.97 Q1102.02 1568.97 1097.66 1564 Q1093.33 1559 1093.33 1550.25 Q1093.33 1541.47 1097.66 1536.5 Q1102.02 1531.54 1109.69 1531.54 Z" fill="#000000" fill-rule="nonzero" fill-opacity="1" /><path clip-path="url(#clip570)" d="M1159.21 1549.81 Q1159.21 1543.44 1156.57 1539.94 Q1153.96 1536.44 1149.22 1536.44 Q1144.51 1536.44 1141.87 1539.94 Q1139.26 1543.44 1139.26 1549.81 Q1139.26 1556.14 1141.87 1559.64 Q1144.51 1563.14 1149.22 1563.14 Q1153.96 1563.14 1156.57 1559.64 Q1159.21 1556.14 1159.21 1549.81 M1165.07 1563.62 Q1165.07 1572.72 1161.03 1577.15 Q1156.99 1581.6 1148.65 1581.6 Q1145.56 1581.6 1142.82 1581.13 Q1140.09 1580.68 1137.51 1579.72 L1137.51 1574.03 Q1140.09 1575.43 1142.6 1576.1 Q1145.11 1576.76 1147.72 1576.76 Q1153.48 1576.76 1156.35 1573.74 Q1159.21 1570.75 1159.21 1564.67 L1159.21 1561.77 Q1157.4 1564.92 1154.57 1566.48 Q1151.73 1568.04 1147.79 1568.04 Q1141.23 1568.04 1137.22 1563.05 Q1133.21 1558.05 1133.21 1549.81 Q1133.21 1541.53 1137.22 1536.53 Q1141.23 1531.54 1147.79 1531.54 Q1151.73 1531.54 1154.57 1533.1 Q1157.4 1534.66 1159.21 1537.81 L1159.21 1532.4 L1165.07 1532.4 L1165.07 1563.62 Z" fill="#000000" fill-rule="nonzero" fill-opacity="1" /><path clip-path="url(#clip570)" d="M1223.44 1550.25 Q1223.44 1543.79 1220.77 1540.13 Q1218.13 1536.44 1213.48 1536.44 Q1208.83 1536.44 1206.16 1540.13 Q1203.52 1543.79 1203.52 1550.25 Q1203.52 1556.71 1206.16 1560.4 Q1208.83 1564.07 1213.48 1564.07 Q1218.13 1564.07 1220.77 1560.4 Q1223.44 1556.71 1223.44 1550.25 M1203.52 1537.81 Q1205.37 1534.62 1208.17 1533.1 Q1211 1531.54 1214.91 1531.54 Q1221.41 1531.54 1225.45 1536.69 Q1229.52 1541.85 1229.52 1550.25 Q1229.52 1558.65 1225.45 1563.81 Q1221.41 1568.97 1214.91 1568.97 Q1211 1568.97 1208.17 1567.44 Q1205.37 1565.88 1203.52 1562.7 L1203.52 1568.04 L1197.63 1568.04 L1197.63 1518.52 L1203.52 1518.52 L1203.52 1537.81 Z" fill="#000000" fill-rule="nonzero" fill-opacity="1" /><path clip-path="url(#clip570)" d="M1253.04 1536.5 Q1248.33 1536.5 1245.6 1540.19 Q1242.86 1543.85 1242.86 1550.25 Q1242.86 1556.65 1245.56 1560.34 Q1248.3 1564 1253.04 1564 Q1257.72 1564 1260.46 1560.31 Q1263.2 1556.62 1263.2 1550.25 Q1263.2 1543.92 1260.46 1540.23 Q1257.72 1536.5 1253.04 1536.5 M1253.04 1531.54 Q1260.68 1531.54 1265.04 1536.5 Q1269.4 1541.47 1269.4 1550.25 Q1269.4 1559 1265.04 1564 Q1260.68 1568.97 1253.04 1568.97 Q1245.37 1568.97 1241.01 1564 Q1236.68 1559 1236.68 1550.25 Q1236.68 1541.47 1241.01 1536.5 Q1245.37 1531.54 1253.04 1531.54 Z" fill="#000000" fill-rule="nonzero" fill-opacity="1" /><path clip-path="url(#clip570)" d="M1302.57 1537.81 L1302.57 1518.52 L1308.43 1518.52 L1308.43 1568.04 L1302.57 1568.04 L1302.57 1562.7 Q1300.72 1565.88 1297.89 1567.44 Q1295.09 1568.97 1291.14 1568.97 Q1284.68 1568.97 1280.61 1563.81 Q1276.57 1558.65 1276.57 1550.25 Q1276.57 1541.85 1280.61 1536.69 Q1284.68 1531.54 1291.14 1531.54 Q1295.09 1531.54 1297.89 1533.1 Q1300.72 1534.62 1302.57 1537.81 M1282.61 1550.25 Q1282.61 1556.71 1285.25 1560.4 Q1287.93 1564.07 1292.58 1564.07 Q1297.22 1564.07 1299.9 1560.4 Q1302.57 1556.71 1302.57 1550.25 Q1302.57 1543.79 1299.9 1540.13 Q1297.22 1536.44 1292.58 1536.44 Q1287.93 1536.44 1285.25 1540.13 Q1282.61 1543.79 1282.61 1550.25 Z" fill="#000000" fill-rule="nonzero" fill-opacity="1" /><path clip-path="url(#clip570)" d="M1335.32 1571.35 Q1332.84 1577.72 1330.48 1579.66 Q1328.13 1581.6 1324.18 1581.6 L1319.5 1581.6 L1319.5 1576.7 L1322.94 1576.7 Q1325.36 1576.7 1326.7 1575.56 Q1328.03 1574.41 1329.66 1570.14 L1330.71 1567.47 L1316.29 1532.4 L1322.49 1532.4 L1333.63 1560.28 L1344.77 1532.4 L1350.98 1532.4 L1335.32 1571.35 Z" fill="#000000" fill-rule="nonzero" fill-opacity="1" /><path clip-path="url(#clip570)" d="M1407.54 1539.24 Q1409.74 1535.29 1412.79 1533.41 Q1415.85 1531.54 1419.99 1531.54 Q1425.56 1531.54 1428.58 1535.45 Q1431.6 1539.33 1431.6 1546.53 L1431.6 1568.04 L1425.71 1568.04 L1425.71 1546.72 Q1425.71 1541.59 1423.9 1539.11 Q1422.09 1536.63 1418.36 1536.63 Q1413.81 1536.63 1411.17 1539.65 Q1408.53 1542.68 1408.53 1547.9 L1408.53 1568.04 L1402.64 1568.04 L1402.64 1546.72 Q1402.64 1541.56 1400.82 1539.11 Q1399.01 1536.63 1395.22 1536.63 Q1390.73 1536.63 1388.09 1539.68 Q1385.45 1542.71 1385.45 1547.9 L1385.45 1568.04 L1379.56 1568.04 L1379.56 1532.4 L1385.45 1532.4 L1385.45 1537.93 Q1387.46 1534.66 1390.26 1533.1 Q1393.06 1531.54 1396.91 1531.54 Q1400.79 1531.54 1403.5 1533.51 Q1406.24 1535.48 1407.54 1539.24 Z" fill="#000000" fill-rule="nonzero" fill-opacity="1" /><path clip-path="url(#clip570)" d="M1459.48 1550.12 Q1452.39 1550.12 1449.65 1551.75 Q1446.91 1553.37 1446.91 1557.29 Q1446.91 1560.4 1448.95 1562.25 Q1451.02 1564.07 1454.55 1564.07 Q1459.42 1564.07 1462.35 1560.63 Q1465.31 1557.16 1465.31 1551.43 L1465.31 1550.12 L1459.48 1550.12 M1471.17 1547.71 L1471.17 1568.04 L1465.31 1568.04 L1465.31 1562.63 Q1463.3 1565.88 1460.31 1567.44 Q1457.32 1568.97 1452.99 1568.97 Q1447.52 1568.97 1444.27 1565.91 Q1441.06 1562.82 1441.06 1557.67 Q1441.06 1551.65 1445.07 1548.6 Q1449.11 1545.54 1457.1 1545.54 L1465.31 1545.54 L1465.31 1544.97 Q1465.31 1540.93 1462.64 1538.73 Q1459.99 1536.5 1455.19 1536.5 Q1452.13 1536.5 1449.24 1537.23 Q1446.34 1537.97 1443.67 1539.43 L1443.67 1534.02 Q1446.88 1532.78 1449.9 1532.17 Q1452.93 1531.54 1455.79 1531.54 Q1463.53 1531.54 1467.35 1535.55 Q1471.17 1539.56 1471.17 1547.71 Z" fill="#000000" fill-rule="nonzero" fill-opacity="1" /><path clip-path="url(#clip570)" d="M1505.95 1533.45 L1505.95 1538.98 Q1503.47 1537.71 1500.8 1537.07 Q1498.12 1536.44 1495.26 1536.44 Q1490.9 1536.44 1488.7 1537.77 Q1486.54 1539.11 1486.54 1541.79 Q1486.54 1543.82 1488.1 1545 Q1489.66 1546.15 1494.37 1547.2 L1496.37 1547.64 Q1502.61 1548.98 1505.22 1551.43 Q1507.86 1553.85 1507.86 1558.21 Q1507.86 1563.17 1503.92 1566.07 Q1500 1568.97 1493.13 1568.97 Q1490.26 1568.97 1487.14 1568.39 Q1484.06 1567.85 1480.62 1566.74 L1480.62 1560.69 Q1483.87 1562.38 1487.02 1563.24 Q1490.17 1564.07 1493.25 1564.07 Q1497.39 1564.07 1499.62 1562.66 Q1501.85 1561.23 1501.85 1558.65 Q1501.85 1556.27 1500.22 1554.99 Q1498.63 1553.72 1493.19 1552.54 L1491.15 1552.07 Q1485.71 1550.92 1483.29 1548.56 Q1480.87 1546.18 1480.87 1542.04 Q1480.87 1537.01 1484.44 1534.27 Q1488 1531.54 1494.56 1531.54 Q1497.81 1531.54 1500.67 1532.01 Q1503.54 1532.49 1505.95 1533.45 Z" fill="#000000" fill-rule="nonzero" fill-opacity="1" /><path clip-path="url(#clip570)" d="M1539.92 1533.45 L1539.92 1538.98 Q1537.43 1537.71 1534.76 1537.07 Q1532.09 1536.44 1529.22 1536.44 Q1524.86 1536.44 1522.66 1537.77 Q1520.5 1539.11 1520.5 1541.79 Q1520.5 1543.82 1522.06 1545 Q1523.62 1546.15 1528.33 1547.2 L1530.33 1547.64 Q1536.57 1548.98 1539.18 1551.43 Q1541.82 1553.85 1541.82 1558.21 Q1541.82 1563.17 1537.88 1566.07 Q1533.96 1568.97 1527.09 1568.97 Q1524.22 1568.97 1521.1 1568.39 Q1518.02 1567.85 1514.58 1566.74 L1514.58 1560.69 Q1517.83 1562.38 1520.98 1563.24 Q1524.13 1564.07 1527.22 1564.07 Q1531.35 1564.07 1533.58 1562.66 Q1535.81 1561.23 1535.81 1558.65 Q1535.81 1556.27 1534.19 1554.99 Q1532.59 1553.72 1527.15 1552.54 L1525.11 1552.07 Q1519.67 1550.92 1517.25 1548.56 Q1514.83 1546.18 1514.83 1542.04 Q1514.83 1537.01 1518.4 1534.27 Q1521.96 1531.54 1528.52 1531.54 Q1531.77 1531.54 1534.63 1532.01 Q1537.5 1532.49 1539.92 1533.45 Z" fill="#000000" fill-rule="nonzero" fill-opacity="1" /><polyline clip-path="url(#clip570)" style="stroke:#000000; stroke-linecap:round; stroke-linejoin:round; stroke-width:4; stroke-opacity:1; fill:none" points="250.028,1423.18 250.028,123.472 "/>
<polyline clip-path="url(#clip570)" style="stroke:#000000; stroke-linecap:round; stroke-linejoin:round; stroke-width:4; stroke-opacity:1; fill:none" points="250.028,1386.4 268.926,1386.4 "/>
<polyline clip-path="url(#clip570)" style="stroke:#000000; stroke-linecap:round; stroke-linejoin:round; stroke-width:4; stroke-opacity:1; fill:none" points="250.028,1096.81 268.926,1096.81 "/>
<polyline clip-path="url(#clip570)" style="stroke:#000000; stroke-linecap:round; stroke-linejoin:round; stroke-width:4; stroke-opacity:1; fill:none" points="250.028,807.23 268.926,807.23 "/>
<polyline clip-path="url(#clip570)" style="stroke:#000000; stroke-linecap:round; stroke-linejoin:round; stroke-width:4; stroke-opacity:1; fill:none" points="250.028,517.647 268.926,517.647 "/>
<polyline clip-path="url(#clip570)" style="stroke:#000000; stroke-linecap:round; stroke-linejoin:round; stroke-width:4; stroke-opacity:1; fill:none" points="250.028,228.064 268.926,228.064 "/>
<path clip-path="url(#clip570)" d="M126.691 1372.19 Q123.08 1372.19 121.251 1375.76 Q119.445 1379.3 119.445 1386.43 Q119.445 1393.54 121.251 1397.1 Q123.08 1400.64 126.691 1400.64 Q130.325 1400.64 132.13 1397.1 Q133.959 1393.54 133.959 1386.43 Q133.959 1379.3 132.13 1375.76 Q130.325 1372.19 126.691 1372.19 M126.691 1368.49 Q132.501 1368.49 135.556 1373.1 Q138.635 1377.68 138.635 1386.43 Q138.635 1395.16 135.556 1399.76 Q132.501 1404.35 126.691 1404.35 Q120.88 1404.35 117.802 1399.76 Q114.746 1395.16 114.746 1386.43 Q114.746 1377.68 117.802 1373.1 Q120.88 1368.49 126.691 1368.49 Z" fill="#000000" fill-rule="nonzero" fill-opacity="1" /><path clip-path="url(#clip570)" d="M146.853 1397.8 L151.737 1397.8 L151.737 1403.68 L146.853 1403.68 L146.853 1397.8 Z" fill="#000000" fill-rule="nonzero" fill-opacity="1" /><path clip-path="url(#clip570)" d="M171.922 1372.19 Q168.311 1372.19 166.482 1375.76 Q164.677 1379.3 164.677 1386.43 Q164.677 1393.54 166.482 1397.1 Q168.311 1400.64 171.922 1400.64 Q175.556 1400.64 177.362 1397.1 Q179.19 1393.54 179.19 1386.43 Q179.19 1379.3 177.362 1375.76 Q175.556 1372.19 171.922 1372.19 M171.922 1368.49 Q177.732 1368.49 180.788 1373.1 Q183.866 1377.68 183.866 1386.43 Q183.866 1395.16 180.788 1399.76 Q177.732 1404.35 171.922 1404.35 Q166.112 1404.35 163.033 1399.76 Q159.978 1395.16 159.978 1386.43 Q159.978 1377.68 163.033 1373.1 Q166.112 1368.49 171.922 1368.49 Z" fill="#000000" fill-rule="nonzero" fill-opacity="1" /><path clip-path="url(#clip570)" d="M202.084 1372.19 Q198.473 1372.19 196.644 1375.76 Q194.838 1379.3 194.838 1386.43 Q194.838 1393.54 196.644 1397.1 Q198.473 1400.64 202.084 1400.64 Q205.718 1400.64 207.524 1397.1 Q209.352 1393.54 209.352 1386.43 Q209.352 1379.3 207.524 1375.76 Q205.718 1372.19 202.084 1372.19 M202.084 1368.49 Q207.894 1368.49 210.949 1373.1 Q214.028 1377.68 214.028 1386.43 Q214.028 1395.16 210.949 1399.76 Q207.894 1404.35 202.084 1404.35 Q196.274 1404.35 193.195 1399.76 Q190.139 1395.16 190.139 1386.43 Q190.139 1377.68 193.195 1373.1 Q196.274 1368.49 202.084 1368.49 Z" fill="#000000" fill-rule="nonzero" fill-opacity="1" /><path clip-path="url(#clip570)" d="M128.288 1082.61 Q124.677 1082.61 122.848 1086.18 Q121.043 1089.72 121.043 1096.85 Q121.043 1103.95 122.848 1107.52 Q124.677 1111.06 128.288 1111.06 Q131.922 1111.06 133.728 1107.52 Q135.556 1103.95 135.556 1096.85 Q135.556 1089.72 133.728 1086.18 Q131.922 1082.61 128.288 1082.61 M128.288 1078.91 Q134.098 1078.91 137.154 1083.51 Q140.232 1088.1 140.232 1096.85 Q140.232 1105.57 137.154 1110.18 Q134.098 1114.76 128.288 1114.76 Q122.478 1114.76 119.399 1110.18 Q116.343 1105.57 116.343 1096.85 Q116.343 1088.1 119.399 1083.51 Q122.478 1078.91 128.288 1078.91 Z" fill="#000000" fill-rule="nonzero" fill-opacity="1" /><path clip-path="url(#clip570)" d="M148.45 1108.21 L153.334 1108.21 L153.334 1114.09 L148.45 1114.09 L148.45 1108.21 Z" fill="#000000" fill-rule="nonzero" fill-opacity="1" /><path clip-path="url(#clip570)" d="M173.519 1082.61 Q169.908 1082.61 168.079 1086.18 Q166.274 1089.72 166.274 1096.85 Q166.274 1103.95 168.079 1107.52 Q169.908 1111.06 173.519 1111.06 Q177.153 1111.06 178.959 1107.52 Q180.788 1103.95 180.788 1096.85 Q180.788 1089.72 178.959 1086.18 Q177.153 1082.61 173.519 1082.61 M173.519 1078.91 Q179.329 1078.91 182.385 1083.51 Q185.463 1088.1 185.463 1096.85 Q185.463 1105.57 182.385 1110.18 Q179.329 1114.76 173.519 1114.76 Q167.709 1114.76 164.63 1110.18 Q161.575 1105.57 161.575 1096.85 Q161.575 1088.1 164.63 1083.51 Q167.709 1078.91 173.519 1078.91 Z" fill="#000000" fill-rule="nonzero" fill-opacity="1" /><path clip-path="url(#clip570)" d="M197.709 1110.16 L214.028 1110.16 L214.028 1114.09 L192.084 1114.09 L192.084 1110.16 Q194.746 1107.4 199.329 1102.77 Q203.936 1098.12 205.116 1096.78 Q207.362 1094.25 208.241 1092.52 Q209.144 1090.76 209.144 1089.07 Q209.144 1086.32 207.199 1084.58 Q205.278 1082.84 202.176 1082.84 Q199.977 1082.84 197.524 1083.61 Q195.093 1084.37 192.315 1085.92 L192.315 1081.2 Q195.139 1080.07 197.593 1079.49 Q200.047 1078.91 202.084 1078.91 Q207.454 1078.91 210.649 1081.59 Q213.843 1084.28 213.843 1088.77 Q213.843 1090.9 213.033 1092.82 Q212.246 1094.72 210.139 1097.31 Q209.561 1097.98 206.459 1101.2 Q203.357 1104.39 197.709 1110.16 Z" fill="#000000" fill-rule="nonzero" fill-opacity="1" /><path clip-path="url(#clip570)" d="M126.205 793.028 Q122.593 793.028 120.765 796.593 Q118.959 800.135 118.959 807.264 Q118.959 814.371 120.765 817.936 Q122.593 821.477 126.205 821.477 Q129.839 821.477 131.644 817.936 Q133.473 814.371 133.473 807.264 Q133.473 800.135 131.644 796.593 Q129.839 793.028 126.205 793.028 M126.205 789.325 Q132.015 789.325 135.07 793.931 Q138.149 798.514 138.149 807.264 Q138.149 815.991 135.07 820.598 Q132.015 825.181 126.205 825.181 Q120.394 825.181 117.316 820.598 Q114.26 815.991 114.26 807.264 Q114.26 798.514 117.316 793.931 Q120.394 789.325 126.205 789.325 Z" fill="#000000" fill-rule="nonzero" fill-opacity="1" /><path clip-path="url(#clip570)" d="M146.366 818.63 L151.251 818.63 L151.251 824.51 L146.366 824.51 L146.366 818.63 Z" fill="#000000" fill-rule="nonzero" fill-opacity="1" /><path clip-path="url(#clip570)" d="M171.436 793.028 Q167.825 793.028 165.996 796.593 Q164.19 800.135 164.19 807.264 Q164.19 814.371 165.996 817.936 Q167.825 821.477 171.436 821.477 Q175.07 821.477 176.876 817.936 Q178.704 814.371 178.704 807.264 Q178.704 800.135 176.876 796.593 Q175.07 793.028 171.436 793.028 M171.436 789.325 Q177.246 789.325 180.301 793.931 Q183.38 798.514 183.38 807.264 Q183.38 815.991 180.301 820.598 Q177.246 825.181 171.436 825.181 Q165.626 825.181 162.547 820.598 Q159.491 815.991 159.491 807.264 Q159.491 798.514 162.547 793.931 Q165.626 789.325 171.436 789.325 Z" fill="#000000" fill-rule="nonzero" fill-opacity="1" /><path clip-path="url(#clip570)" d="M204.445 794.024 L192.639 812.473 L204.445 812.473 L204.445 794.024 M203.218 789.95 L209.098 789.95 L209.098 812.473 L214.028 812.473 L214.028 816.362 L209.098 816.362 L209.098 824.51 L204.445 824.51 L204.445 816.362 L188.843 816.362 L188.843 811.848 L203.218 789.95 Z" fill="#000000" fill-rule="nonzero" fill-opacity="1" /><path clip-path="url(#clip570)" d="M126.529 503.445 Q122.918 503.445 121.089 507.01 Q119.283 510.552 119.283 517.681 Q119.283 524.788 121.089 528.353 Q122.918 531.894 126.529 531.894 Q130.163 531.894 131.968 528.353 Q133.797 524.788 133.797 517.681 Q133.797 510.552 131.968 507.01 Q130.163 503.445 126.529 503.445 M126.529 499.742 Q132.339 499.742 135.394 504.348 Q138.473 508.931 138.473 517.681 Q138.473 526.408 135.394 531.015 Q132.339 535.598 126.529 535.598 Q120.718 535.598 117.64 531.015 Q114.584 526.408 114.584 517.681 Q114.584 508.931 117.64 504.348 Q120.718 499.742 126.529 499.742 Z" fill="#000000" fill-rule="nonzero" fill-opacity="1" /><path clip-path="url(#clip570)" d="M146.691 529.047 L151.575 529.047 L151.575 534.927 L146.691 534.927 L146.691 529.047 Z" fill="#000000" fill-rule="nonzero" fill-opacity="1" /><path clip-path="url(#clip570)" d="M171.76 503.445 Q168.149 503.445 166.32 507.01 Q164.515 510.552 164.515 517.681 Q164.515 524.788 166.32 528.353 Q168.149 531.894 171.76 531.894 Q175.394 531.894 177.2 528.353 Q179.028 524.788 179.028 517.681 Q179.028 510.552 177.2 507.01 Q175.394 503.445 171.76 503.445 M171.76 499.742 Q177.57 499.742 180.626 504.348 Q183.704 508.931 183.704 517.681 Q183.704 526.408 180.626 531.015 Q177.57 535.598 171.76 535.598 Q165.95 535.598 162.871 531.015 Q159.815 526.408 159.815 517.681 Q159.815 508.931 162.871 504.348 Q165.95 499.742 171.76 499.742 Z" fill="#000000" fill-rule="nonzero" fill-opacity="1" /><path clip-path="url(#clip570)" d="M202.5 515.783 Q199.352 515.783 197.5 517.936 Q195.672 520.089 195.672 523.839 Q195.672 527.566 197.5 529.742 Q199.352 531.894 202.5 531.894 Q205.649 531.894 207.477 529.742 Q209.329 527.566 209.329 523.839 Q209.329 520.089 207.477 517.936 Q205.649 515.783 202.5 515.783 M211.783 501.131 L211.783 505.39 Q210.024 504.556 208.218 504.117 Q206.436 503.677 204.676 503.677 Q200.047 503.677 197.593 506.802 Q195.163 509.927 194.815 516.246 Q196.181 514.232 198.241 513.168 Q200.301 512.08 202.778 512.08 Q207.987 512.08 210.996 515.251 Q214.028 518.399 214.028 523.839 Q214.028 529.163 210.88 532.38 Q207.732 535.598 202.5 535.598 Q196.505 535.598 193.334 531.015 Q190.163 526.408 190.163 517.681 Q190.163 509.487 194.051 504.626 Q197.94 499.742 204.491 499.742 Q206.25 499.742 208.033 500.089 Q209.838 500.436 211.783 501.131 Z" fill="#000000" fill-rule="nonzero" fill-opacity="1" /><path clip-path="url(#clip570)" d="M126.783 213.862 Q123.172 213.862 121.343 217.427 Q119.538 220.969 119.538 228.098 Q119.538 235.205 121.343 238.77 Q123.172 242.311 126.783 242.311 Q130.417 242.311 132.223 238.77 Q134.052 235.205 134.052 228.098 Q134.052 220.969 132.223 217.427 Q130.417 213.862 126.783 213.862 M126.783 210.159 Q132.593 210.159 135.649 214.765 Q138.728 219.348 138.728 228.098 Q138.728 236.825 135.649 241.432 Q132.593 246.015 126.783 246.015 Q120.973 246.015 117.894 241.432 Q114.839 236.825 114.839 228.098 Q114.839 219.348 117.894 214.765 Q120.973 210.159 126.783 210.159 Z" fill="#000000" fill-rule="nonzero" fill-opacity="1" /><path clip-path="url(#clip570)" d="M146.945 239.464 L151.829 239.464 L151.829 245.344 L146.945 245.344 L146.945 239.464 Z" fill="#000000" fill-rule="nonzero" fill-opacity="1" /><path clip-path="url(#clip570)" d="M172.014 213.862 Q168.403 213.862 166.575 217.427 Q164.769 220.969 164.769 228.098 Q164.769 235.205 166.575 238.77 Q168.403 242.311 172.014 242.311 Q175.649 242.311 177.454 238.77 Q179.283 235.205 179.283 228.098 Q179.283 220.969 177.454 217.427 Q175.649 213.862 172.014 213.862 M172.014 210.159 Q177.825 210.159 180.88 214.765 Q183.959 219.348 183.959 228.098 Q183.959 236.825 180.88 241.432 Q177.825 246.015 172.014 246.015 Q166.204 246.015 163.126 241.432 Q160.07 236.825 160.07 228.098 Q160.07 219.348 163.126 214.765 Q166.204 210.159 172.014 210.159 Z" fill="#000000" fill-rule="nonzero" fill-opacity="1" /><path clip-path="url(#clip570)" d="M202.176 228.932 Q198.843 228.932 196.922 230.714 Q195.024 232.497 195.024 235.621 Q195.024 238.746 196.922 240.529 Q198.843 242.311 202.176 242.311 Q205.51 242.311 207.431 240.529 Q209.352 238.723 209.352 235.621 Q209.352 232.497 207.431 230.714 Q205.533 228.932 202.176 228.932 M197.5 226.941 Q194.491 226.2 192.801 224.14 Q191.135 222.08 191.135 219.117 Q191.135 214.973 194.075 212.566 Q197.037 210.159 202.176 210.159 Q207.338 210.159 210.278 212.566 Q213.218 214.973 213.218 219.117 Q213.218 222.08 211.528 224.14 Q209.861 226.2 206.875 226.941 Q210.255 227.728 212.13 230.02 Q214.028 232.311 214.028 235.621 Q214.028 240.645 210.949 243.33 Q207.894 246.015 202.176 246.015 Q196.459 246.015 193.38 243.33 Q190.325 240.645 190.325 235.621 Q190.325 232.311 192.223 230.02 Q194.121 227.728 197.5 226.941 M195.787 219.557 Q195.787 222.242 197.454 223.747 Q199.144 225.251 202.176 225.251 Q205.186 225.251 206.875 223.747 Q208.588 222.242 208.588 219.557 Q208.588 216.872 206.875 215.367 Q205.186 213.862 202.176 213.862 Q199.144 213.862 197.454 215.367 Q195.787 216.872 195.787 219.557 Z" fill="#000000" fill-rule="nonzero" fill-opacity="1" /><path clip-path="url(#clip570)" d="M21.7677 886.636 L58.7206 886.636 L58.7206 878.869 Q58.7206 869.034 54.2646 864.483 Q49.8086 859.9 40.1964 859.9 Q30.6479 859.9 26.2237 864.483 Q21.7677 869.034 21.7677 878.869 L21.7677 886.636 M16.4842 893.065 L16.4842 879.856 Q16.4842 866.043 22.2451 859.581 Q27.9743 853.12 40.1964 853.12 Q52.4822 853.12 58.2432 859.613 Q64.0042 866.106 64.0042 879.856 L64.0042 893.065 L16.4842 893.065 Z" fill="#000000" fill-rule="nonzero" fill-opacity="1" /><path clip-path="url(#clip570)" d="M44.7161 812.634 L47.5806 812.634 L47.5806 839.561 Q53.6281 839.179 56.8109 835.933 Q59.9619 832.654 59.9619 826.83 Q59.9619 823.456 59.1344 820.305 Q58.3069 817.122 56.6518 814.003 L62.1899 814.003 Q63.5267 817.154 64.227 820.464 Q64.9272 823.774 64.9272 827.18 Q64.9272 835.71 59.9619 840.707 Q54.9967 845.672 46.5303 845.672 Q37.7774 845.672 32.6531 840.962 Q27.4968 836.219 27.4968 828.198 Q27.4968 821.005 32.1438 816.836 Q36.7589 812.634 44.7161 812.634 M42.9973 818.491 Q38.1912 818.554 35.3266 821.196 Q32.4621 823.806 32.4621 828.135 Q32.4621 833.036 35.2312 835.996 Q38.0002 838.925 43.0292 839.37 L42.9973 818.491 Z" fill="#000000" fill-rule="nonzero" fill-opacity="1" /><path clip-path="url(#clip570)" d="M42.4881 773.39 L64.0042 773.39 L64.0042 779.246 L42.679 779.246 Q37.6183 779.246 35.1038 781.219 Q32.5894 783.193 32.5894 787.14 Q32.5894 791.882 35.6131 794.619 Q38.6368 797.357 43.8567 797.357 L64.0042 797.357 L64.0042 803.245 L28.3562 803.245 L28.3562 797.357 L33.8944 797.357 Q30.6797 795.256 29.0883 792.423 Q27.4968 789.559 27.4968 785.835 Q27.4968 779.692 31.3163 776.541 Q35.1038 773.39 42.4881 773.39 Z" fill="#000000" fill-rule="nonzero" fill-opacity="1" /><path clip-path="url(#clip570)" d="M29.4065 738.983 L34.9447 738.983 Q33.6716 741.466 33.035 744.139 Q32.3984 746.813 32.3984 749.677 Q32.3984 754.038 33.7352 756.234 Q35.072 758.398 37.7456 758.398 Q39.7826 758.398 40.9603 756.839 Q42.1061 755.279 43.1565 750.569 L43.6021 748.563 Q44.9389 742.325 47.3897 739.715 Q49.8086 737.073 54.1691 737.073 Q59.1344 737.073 62.0308 741.02 Q64.9272 744.935 64.9272 751.81 Q64.9272 754.674 64.3543 757.794 Q63.8132 760.881 62.6992 764.319 L56.6518 764.319 Q58.3387 761.072 59.198 757.921 Q60.0256 754.77 60.0256 751.683 Q60.0256 747.545 58.6251 745.317 Q57.1929 743.089 54.6147 743.089 Q52.2276 743.089 50.9545 744.712 Q49.6813 746.304 48.5037 751.746 L48.0262 753.783 Q46.8804 759.226 44.5251 761.645 Q42.138 764.064 38.0002 764.064 Q32.9713 764.064 30.2341 760.499 Q27.4968 756.934 27.4968 750.378 Q27.4968 747.131 27.9743 744.267 Q28.4517 741.402 29.4065 738.983 Z" fill="#000000" fill-rule="nonzero" fill-opacity="1" /><path clip-path="url(#clip570)" d="M28.3562 727.748 L28.3562 721.891 L64.0042 721.891 L64.0042 727.748 L28.3562 727.748 M14.479 727.748 L14.479 721.891 L21.895 721.891 L21.895 727.748 L14.479 727.748 Z" fill="#000000" fill-rule="nonzero" fill-opacity="1" /><path clip-path="url(#clip570)" d="M18.2347 703.844 L28.3562 703.844 L28.3562 691.781 L32.9077 691.781 L32.9077 703.844 L52.2594 703.844 Q56.6199 703.844 57.8613 702.667 Q59.1026 701.457 59.1026 697.797 L59.1026 691.781 L64.0042 691.781 L64.0042 697.797 Q64.0042 704.576 61.4897 707.154 Q58.9434 709.733 52.2594 709.733 L32.9077 709.733 L32.9077 714.029 L28.3562 714.029 L28.3562 709.733 L18.2347 709.733 L18.2347 703.844 Z" fill="#000000" fill-rule="nonzero" fill-opacity="1" /><path clip-path="url(#clip570)" d="M67.3143 669.247 Q73.68 671.729 75.6216 674.085 Q77.5631 676.44 77.5631 680.387 L77.5631 685.065 L72.6615 685.065 L72.6615 681.628 Q72.6615 679.209 71.5157 677.872 Q70.3699 676.535 66.1048 674.912 L63.4312 673.862 L28.3562 688.28 L28.3562 682.074 L56.238 670.934 L28.3562 659.794 L28.3562 653.587 L67.3143 669.247 Z" fill="#000000" fill-rule="nonzero" fill-opacity="1" /><path clip-path="url(#clip570)" d="M716.158 14.0809 L716.158 22.0612 Q711.499 19.8332 707.367 18.7395 Q703.236 17.6457 699.387 17.6457 Q692.703 17.6457 689.057 20.2383 Q685.452 22.8309 685.452 27.611 Q685.452 31.6214 687.842 33.6873 Q690.273 35.7128 696.997 36.9686 L701.939 37.9813 Q711.094 39.7232 715.429 44.1387 Q719.804 48.5136 719.804 55.8863 Q719.804 64.6767 713.889 69.2137 Q708.016 73.7508 696.633 73.7508 Q692.339 73.7508 687.477 72.7785 Q682.657 71.8063 677.472 69.9024 L677.472 61.4765 Q682.454 64.2716 687.234 65.6895 Q692.015 67.1073 696.633 67.1073 Q703.641 67.1073 707.448 64.3527 Q711.256 61.598 711.256 56.4939 Q711.256 52.0379 708.502 49.5264 Q705.788 47.0148 699.549 45.759 L694.567 44.7868 Q685.412 42.9639 681.32 39.075 Q677.229 35.1862 677.229 28.2591 Q677.229 20.2383 682.859 15.6203 Q688.531 11.0023 698.455 11.0023 Q702.709 11.0023 707.124 11.7719 Q711.54 12.5416 716.158 14.0809 Z" fill="#000000" fill-rule="nonzero" fill-opacity="1" /><path clip-path="url(#clip570)" d="M739.613 14.324 L739.613 27.2059 L754.966 27.2059 L754.966 32.9987 L739.613 32.9987 L739.613 57.6282 Q739.613 63.1779 741.111 64.7578 Q742.651 66.3376 747.309 66.3376 L754.966 66.3376 L754.966 72.576 L747.309 72.576 Q738.681 72.576 735.4 69.3758 Q732.118 66.1351 732.118 57.6282 L732.118 32.9987 L726.65 32.9987 L726.65 27.2059 L732.118 27.2059 L732.118 14.324 L739.613 14.324 Z" fill="#000000" fill-rule="nonzero" fill-opacity="1" /><path clip-path="url(#clip570)" d="M785.388 49.7694 Q776.354 49.7694 772.871 51.8354 Q769.387 53.9013 769.387 58.8839 Q769.387 62.8538 771.979 65.2034 Q774.612 67.5124 779.109 67.5124 Q785.307 67.5124 789.034 63.1374 Q792.801 58.7219 792.801 51.4303 L792.801 49.7694 L785.388 49.7694 M800.255 46.6907 L800.255 72.576 L792.801 72.576 L792.801 65.6895 Q790.249 69.8214 786.441 71.8063 Q782.633 73.7508 777.124 73.7508 Q770.156 73.7508 766.025 69.8619 Q761.933 65.9325 761.933 59.3701 Q761.933 51.7138 767.037 47.825 Q772.182 43.9361 782.35 43.9361 L792.801 43.9361 L792.801 43.2069 Q792.801 38.0623 789.398 35.2672 Q786.036 32.4315 779.919 32.4315 Q776.03 32.4315 772.344 33.3632 Q768.658 34.295 765.255 36.1584 L765.255 29.2718 Q769.346 27.692 773.195 26.9223 Q777.043 26.1121 780.689 26.1121 Q790.532 26.1121 795.394 31.2163 Q800.255 36.3204 800.255 46.6907 Z" fill="#000000" fill-rule="nonzero" fill-opacity="1" /><path clip-path="url(#clip570)" d="M848.177 49.9314 Q848.177 41.7081 844.774 37.0496 Q841.412 32.3505 835.498 32.3505 Q829.583 32.3505 826.18 37.0496 Q822.818 41.7081 822.818 49.9314 Q822.818 58.1548 826.18 62.8538 Q829.583 67.5124 835.498 67.5124 Q841.412 67.5124 844.774 62.8538 Q848.177 58.1548 848.177 49.9314 M822.818 34.0924 Q825.168 30.0415 828.733 28.0971 Q832.338 26.1121 837.32 26.1121 Q845.584 26.1121 850.729 32.6746 Q855.914 39.2371 855.914 49.9314 Q855.914 60.6258 850.729 67.1883 Q845.584 73.7508 837.32 73.7508 Q832.338 73.7508 828.733 71.8063 Q825.168 69.8214 822.818 65.7705 L822.818 72.576 L815.324 72.576 L815.324 9.54393 L822.818 9.54393 L822.818 34.0924 Z" fill="#000000" fill-rule="nonzero" fill-opacity="1" /><path clip-path="url(#clip570)" d="M868.269 9.54393 L875.723 9.54393 L875.723 72.576 L868.269 72.576 L868.269 9.54393 Z" fill="#000000" fill-rule="nonzero" fill-opacity="1" /><path clip-path="url(#clip570)" d="M930.127 48.0275 L930.127 51.6733 L895.856 51.6733 Q896.342 59.3701 900.474 63.421 Q904.646 67.4314 912.06 67.4314 Q916.354 67.4314 920.364 66.3781 Q924.415 65.3249 928.385 63.2184 L928.385 70.267 Q924.374 71.9684 920.161 72.8596 Q915.948 73.7508 911.614 73.7508 Q900.758 73.7508 894.398 67.4314 Q888.078 61.1119 888.078 50.3365 Q888.078 39.1965 894.074 32.6746 Q900.109 26.1121 910.318 26.1121 Q919.473 26.1121 924.779 32.0264 Q930.127 37.9003 930.127 48.0275 M922.673 45.84 Q922.592 39.7232 919.23 36.0774 Q915.908 32.4315 910.399 32.4315 Q904.16 32.4315 900.393 35.9558 Q896.666 39.4801 896.099 45.8805 L922.673 45.84 Z" fill="#000000" fill-rule="nonzero" fill-opacity="1" /><path clip-path="url(#clip570)" d="M997.655 28.5427 L997.655 35.5912 Q994.496 33.9709 991.093 33.1607 Q987.69 32.3505 984.044 32.3505 Q978.494 32.3505 975.699 34.0519 Q972.945 35.7533 972.945 39.156 Q972.945 41.7486 974.93 43.2475 Q976.915 44.7058 982.91 46.0426 L985.462 46.6097 Q993.402 48.3111 996.724 51.4303 Q1000.09 54.509 1000.09 60.0587 Q1000.09 66.3781 995.063 70.0644 Q990.08 73.7508 981.33 73.7508 Q977.684 73.7508 973.714 73.0216 Q969.785 72.3329 965.41 70.9151 L965.41 63.2184 Q969.542 65.3654 973.552 66.4591 Q977.563 67.5124 981.492 67.5124 Q986.758 67.5124 989.594 65.73 Q992.43 63.9071 992.43 60.6258 Q992.43 57.5877 990.364 55.9673 Q988.338 54.3469 981.411 52.8481 L978.819 52.2405 Q971.891 50.7821 968.813 47.7845 Q965.734 44.7463 965.734 39.4801 Q965.734 33.0797 970.271 29.5959 Q974.808 26.1121 983.153 26.1121 Q987.285 26.1121 990.931 26.7198 Q994.577 27.3274 997.655 28.5427 Z" fill="#000000" fill-rule="nonzero" fill-opacity="1" /><path clip-path="url(#clip570)" d="M1011.95 27.2059 L1019.41 27.2059 L1019.41 72.576 L1011.95 72.576 L1011.95 27.2059 M1011.95 9.54393 L1019.41 9.54393 L1019.41 18.9825 L1011.95 18.9825 L1011.95 9.54393 Z" fill="#000000" fill-rule="nonzero" fill-opacity="1" /><path clip-path="url(#clip570)" d="M1031.76 27.2059 L1067.17 27.2059 L1067.17 34.0114 L1039.14 66.6212 L1067.17 66.6212 L1067.17 72.576 L1030.75 72.576 L1030.75 65.7705 L1058.78 33.1607 L1031.76 33.1607 L1031.76 27.2059 Z" fill="#000000" fill-rule="nonzero" fill-opacity="1" /><path clip-path="url(#clip570)" d="M1117.36 48.0275 L1117.36 51.6733 L1083.09 51.6733 Q1083.57 59.3701 1087.71 63.421 Q1091.88 67.4314 1099.29 67.4314 Q1103.59 67.4314 1107.6 66.3781 Q1111.65 65.3249 1115.62 63.2184 L1115.62 70.267 Q1111.61 71.9684 1107.39 72.8596 Q1103.18 73.7508 1098.85 73.7508 Q1087.99 73.7508 1081.63 67.4314 Q1075.31 61.1119 1075.31 50.3365 Q1075.31 39.1965 1081.31 32.6746 Q1087.34 26.1121 1097.55 26.1121 Q1106.71 26.1121 1112.01 32.0264 Q1117.36 37.9003 1117.36 48.0275 M1109.91 45.84 Q1109.82 39.7232 1106.46 36.0774 Q1103.14 32.4315 1097.63 32.4315 Q1091.39 32.4315 1087.63 35.9558 Q1083.9 39.4801 1083.33 45.8805 L1109.91 45.84 Z" fill="#000000" fill-rule="nonzero" fill-opacity="1" /><path clip-path="url(#clip570)" d="M1185.82 34.0924 L1185.82 9.54393 L1193.27 9.54393 L1193.27 72.576 L1185.82 72.576 L1185.82 65.7705 Q1183.47 69.8214 1179.86 71.8063 Q1176.3 73.7508 1171.28 73.7508 Q1163.05 73.7508 1157.87 67.1883 Q1152.72 60.6258 1152.72 49.9314 Q1152.72 39.2371 1157.87 32.6746 Q1163.05 26.1121 1171.28 26.1121 Q1176.3 26.1121 1179.86 28.0971 Q1183.47 30.0415 1185.82 34.0924 M1160.42 49.9314 Q1160.42 58.1548 1163.78 62.8538 Q1167.19 67.5124 1173.1 67.5124 Q1179.01 67.5124 1182.42 62.8538 Q1185.82 58.1548 1185.82 49.9314 Q1185.82 41.7081 1182.42 37.0496 Q1179.01 32.3505 1173.1 32.3505 Q1167.19 32.3505 1163.78 37.0496 Q1160.42 41.7081 1160.42 49.9314 Z" fill="#000000" fill-rule="nonzero" fill-opacity="1" /><path clip-path="url(#clip570)" d="M1208.63 27.2059 L1216.08 27.2059 L1216.08 72.576 L1208.63 72.576 L1208.63 27.2059 M1208.63 9.54393 L1216.08 9.54393 L1216.08 18.9825 L1208.63 18.9825 L1208.63 9.54393 Z" fill="#000000" fill-rule="nonzero" fill-opacity="1" /><path clip-path="url(#clip570)" d="M1260.6 28.5427 L1260.6 35.5912 Q1257.44 33.9709 1254.04 33.1607 Q1250.63 32.3505 1246.99 32.3505 Q1241.44 32.3505 1238.64 34.0519 Q1235.89 35.7533 1235.89 39.156 Q1235.89 41.7486 1237.87 43.2475 Q1239.86 44.7058 1245.85 46.0426 L1248.41 46.6097 Q1256.35 48.3111 1259.67 51.4303 Q1263.03 54.509 1263.03 60.0587 Q1263.03 66.3781 1258.01 70.0644 Q1253.02 73.7508 1244.27 73.7508 Q1240.63 73.7508 1236.66 73.0216 Q1232.73 72.3329 1228.35 70.9151 L1228.35 63.2184 Q1232.49 65.3654 1236.5 66.4591 Q1240.51 67.5124 1244.44 67.5124 Q1249.7 67.5124 1252.54 65.73 Q1255.37 63.9071 1255.37 60.6258 Q1255.37 57.5877 1253.31 55.9673 Q1251.28 54.3469 1244.36 52.8481 L1241.76 52.2405 Q1234.84 50.7821 1231.76 47.7845 Q1228.68 44.7463 1228.68 39.4801 Q1228.68 33.0797 1233.22 29.5959 Q1237.75 26.1121 1246.1 26.1121 Q1250.23 26.1121 1253.87 26.7198 Q1257.52 27.3274 1260.6 28.5427 Z" fill="#000000" fill-rule="nonzero" fill-opacity="1" /><path clip-path="url(#clip570)" d="M1282.27 14.324 L1282.27 27.2059 L1297.62 27.2059 L1297.62 32.9987 L1282.27 32.9987 L1282.27 57.6282 Q1282.27 63.1779 1283.77 64.7578 Q1285.31 66.3376 1289.97 66.3376 L1297.62 66.3376 L1297.62 72.576 L1289.97 72.576 Q1281.34 72.576 1278.06 69.3758 Q1274.78 66.1351 1274.78 57.6282 L1274.78 32.9987 L1269.31 32.9987 L1269.31 27.2059 L1274.78 27.2059 L1274.78 14.324 L1282.27 14.324 Z" fill="#000000" fill-rule="nonzero" fill-opacity="1" /><path clip-path="url(#clip570)" d="M1333.72 34.1734 Q1332.46 33.4443 1330.96 33.1202 Q1329.51 32.7556 1327.72 32.7556 Q1321.4 32.7556 1318 36.8875 Q1314.64 40.9789 1314.64 48.6757 L1314.64 72.576 L1307.14 72.576 L1307.14 27.2059 L1314.64 27.2059 L1314.64 34.2544 Q1316.99 30.1225 1320.76 28.1376 Q1324.52 26.1121 1329.91 26.1121 Q1330.68 26.1121 1331.61 26.2337 Q1332.54 26.3147 1333.68 26.5172 L1333.72 34.1734 Z" fill="#000000" fill-rule="nonzero" fill-opacity="1" /><path clip-path="url(#clip570)" d="M1341.54 27.2059 L1348.99 27.2059 L1348.99 72.576 L1341.54 72.576 L1341.54 27.2059 M1341.54 9.54393 L1348.99 9.54393 L1348.99 18.9825 L1341.54 18.9825 L1341.54 9.54393 Z" fill="#000000" fill-rule="nonzero" fill-opacity="1" /><path clip-path="url(#clip570)" d="M1397.16 49.9314 Q1397.16 41.7081 1393.75 37.0496 Q1390.39 32.3505 1384.48 32.3505 Q1378.56 32.3505 1375.16 37.0496 Q1371.8 41.7081 1371.8 49.9314 Q1371.8 58.1548 1375.16 62.8538 Q1378.56 67.5124 1384.48 67.5124 Q1390.39 67.5124 1393.75 62.8538 Q1397.16 58.1548 1397.16 49.9314 M1371.8 34.0924 Q1374.15 30.0415 1377.71 28.0971 Q1381.32 26.1121 1386.3 26.1121 Q1394.56 26.1121 1399.71 32.6746 Q1404.89 39.2371 1404.89 49.9314 Q1404.89 60.6258 1399.71 67.1883 Q1394.56 73.7508 1386.3 73.7508 Q1381.32 73.7508 1377.71 71.8063 Q1374.15 69.8214 1371.8 65.7705 L1371.8 72.576 L1364.3 72.576 L1364.3 9.54393 L1371.8 9.54393 L1371.8 34.0924 Z" fill="#000000" fill-rule="nonzero" fill-opacity="1" /><path clip-path="url(#clip570)" d="M1416.48 54.671 L1416.48 27.2059 L1423.93 27.2059 L1423.93 54.3874 Q1423.93 60.8284 1426.44 64.0691 Q1428.95 67.2693 1433.98 67.2693 Q1440.01 67.2693 1443.5 63.421 Q1447.02 59.5726 1447.02 52.9291 L1447.02 27.2059 L1454.48 27.2059 L1454.48 72.576 L1447.02 72.576 L1447.02 65.6084 Q1444.31 69.7404 1440.7 71.7658 Q1437.14 73.7508 1432.4 73.7508 Q1424.58 73.7508 1420.53 68.8897 Q1416.48 64.0286 1416.48 54.671 M1435.23 26.1121 L1435.23 26.1121 Z" fill="#000000" fill-rule="nonzero" fill-opacity="1" /><path clip-path="url(#clip570)" d="M1477.2 14.324 L1477.2 27.2059 L1492.55 27.2059 L1492.55 32.9987 L1477.2 32.9987 L1477.2 57.6282 Q1477.2 63.1779 1478.7 64.7578 Q1480.24 66.3376 1484.9 66.3376 L1492.55 66.3376 L1492.55 72.576 L1484.9 72.576 Q1476.27 72.576 1472.99 69.3758 Q1469.71 66.1351 1469.71 57.6282 L1469.71 32.9987 L1464.24 32.9987 L1464.24 27.2059 L1469.71 27.2059 L1469.71 14.324 L1477.2 14.324 Z" fill="#000000" fill-rule="nonzero" fill-opacity="1" /><path clip-path="url(#clip570)" d="M1502.36 27.2059 L1509.81 27.2059 L1509.81 72.576 L1502.36 72.576 L1502.36 27.2059 M1502.36 9.54393 L1509.81 9.54393 L1509.81 18.9825 L1502.36 18.9825 L1502.36 9.54393 Z" fill="#000000" fill-rule="nonzero" fill-opacity="1" /><path clip-path="url(#clip570)" d="M1542.99 32.4315 Q1536.99 32.4315 1533.51 37.1306 Q1530.03 41.7891 1530.03 49.9314 Q1530.03 58.0738 1533.47 62.7728 Q1536.95 67.4314 1542.99 67.4314 Q1548.94 67.4314 1552.43 62.7323 Q1555.91 58.0333 1555.91 49.9314 Q1555.91 41.8701 1552.43 37.1711 Q1548.94 32.4315 1542.99 32.4315 M1542.99 26.1121 Q1552.71 26.1121 1558.26 32.4315 Q1563.81 38.7509 1563.81 49.9314 Q1563.81 61.0714 1558.26 67.4314 Q1552.71 73.7508 1542.99 73.7508 Q1533.23 73.7508 1527.68 67.4314 Q1522.17 61.0714 1522.17 49.9314 Q1522.17 38.7509 1527.68 32.4315 Q1533.23 26.1121 1542.99 26.1121 Z" fill="#000000" fill-rule="nonzero" fill-opacity="1" /><path clip-path="url(#clip570)" d="M1613.88 45.1919 L1613.88 72.576 L1606.43 72.576 L1606.43 45.4349 Q1606.43 38.994 1603.91 35.7938 Q1601.4 32.5936 1596.38 32.5936 Q1590.34 32.5936 1586.86 36.4419 Q1583.38 40.2903 1583.38 46.9338 L1583.38 72.576 L1575.88 72.576 L1575.88 27.2059 L1583.38 27.2059 L1583.38 34.2544 Q1586.05 30.163 1589.65 28.1376 Q1593.3 26.1121 1598.04 26.1121 Q1605.86 26.1121 1609.87 30.9732 Q1613.88 35.7938 1613.88 45.1919 Z" fill="#000000" fill-rule="nonzero" fill-opacity="1" /><path clip-path="url(#clip570)" d="M1687.69 49.9314 Q1687.69 41.7081 1684.28 37.0496 Q1680.92 32.3505 1675.01 32.3505 Q1669.09 32.3505 1665.69 37.0496 Q1662.33 41.7081 1662.33 49.9314 Q1662.33 58.1548 1665.69 62.8538 Q1669.09 67.5124 1675.01 67.5124 Q1680.92 67.5124 1684.28 62.8538 Q1687.69 58.1548 1687.69 49.9314 M1662.33 34.0924 Q1664.68 30.0415 1668.24 28.0971 Q1671.85 26.1121 1676.83 26.1121 Q1685.09 26.1121 1690.24 32.6746 Q1695.42 39.2371 1695.42 49.9314 Q1695.42 60.6258 1690.24 67.1883 Q1685.09 73.7508 1676.83 73.7508 Q1671.85 73.7508 1668.24 71.8063 Q1664.68 69.8214 1662.33 65.7705 L1662.33 72.576 L1654.83 72.576 L1654.83 9.54393 L1662.33 9.54393 L1662.33 34.0924 Z" fill="#000000" fill-rule="nonzero" fill-opacity="1" /><path clip-path="url(#clip570)" d="M1726.66 76.7889 Q1723.5 84.8907 1720.5 87.3618 Q1717.5 89.8329 1712.48 89.8329 L1706.52 89.8329 L1706.52 83.5945 L1710.9 83.5945 Q1713.98 83.5945 1715.68 82.1361 Q1717.38 80.6778 1719.45 75.2496 L1720.78 71.8468 L1702.43 27.2059 L1710.33 27.2059 L1724.51 62.6918 L1738.69 27.2059 L1746.59 27.2059 L1726.66 76.7889 Z" fill="#000000" fill-rule="nonzero" fill-opacity="1" /><path clip-path="url(#clip570)" d="M1803.87 49.7694 Q1794.83 49.7694 1791.35 51.8354 Q1787.87 53.9013 1787.87 58.8839 Q1787.87 62.8538 1790.46 65.2034 Q1793.09 67.5124 1797.59 67.5124 Q1803.79 67.5124 1807.51 63.1374 Q1811.28 58.7219 1811.28 51.4303 L1811.28 49.7694 L1803.87 49.7694 M1818.73 46.6907 L1818.73 72.576 L1811.28 72.576 L1811.28 65.6895 Q1808.73 69.8214 1804.92 71.8063 Q1801.11 73.7508 1795.6 73.7508 Q1788.63 73.7508 1784.5 69.8619 Q1780.41 65.9325 1780.41 59.3701 Q1780.41 51.7138 1785.52 47.825 Q1790.66 43.9361 1800.83 43.9361 L1811.28 43.9361 L1811.28 43.2069 Q1811.28 38.0623 1807.88 35.2672 Q1804.51 32.4315 1798.4 32.4315 Q1794.51 32.4315 1790.82 33.3632 Q1787.14 34.295 1783.73 36.1584 L1783.73 29.2718 Q1787.82 27.692 1791.67 26.9223 Q1795.52 26.1121 1799.17 26.1121 Q1809.01 26.1121 1813.87 31.2163 Q1818.73 36.3204 1818.73 46.6907 Z" fill="#000000" fill-rule="nonzero" fill-opacity="1" /><path clip-path="url(#clip570)" d="M1863.94 49.3643 Q1863.94 41.2625 1860.58 36.8065 Q1857.26 32.3505 1851.22 32.3505 Q1845.23 32.3505 1841.86 36.8065 Q1838.54 41.2625 1838.54 49.3643 Q1838.54 57.4256 1841.86 61.8816 Q1845.23 66.3376 1851.22 66.3376 Q1857.26 66.3376 1860.58 61.8816 Q1863.94 57.4256 1863.94 49.3643 M1871.39 66.9452 Q1871.39 78.5308 1866.25 84.1616 Q1861.11 89.8329 1850.49 89.8329 Q1846.56 89.8329 1843.08 89.2252 Q1839.6 88.6581 1836.31 87.4428 L1836.31 80.1917 Q1839.6 81.9741 1842.8 82.8248 Q1846 83.6755 1849.32 83.6755 Q1856.65 83.6755 1860.3 79.8271 Q1863.94 76.0193 1863.94 68.282 L1863.94 64.5957 Q1861.63 68.6061 1858.03 70.5911 Q1854.42 72.576 1849.4 72.576 Q1841.05 72.576 1835.95 66.2161 Q1830.85 59.8562 1830.85 49.3643 Q1830.85 38.832 1835.95 32.472 Q1841.05 26.1121 1849.4 26.1121 Q1854.42 26.1121 1858.03 28.0971 Q1861.63 30.082 1863.94 34.0924 L1863.94 27.2059 L1871.39 27.2059 L1871.39 66.9452 Z" fill="#000000" fill-rule="nonzero" fill-opacity="1" /><path clip-path="url(#clip570)" d="M1925.56 48.0275 L1925.56 51.6733 L1891.28 51.6733 Q1891.77 59.3701 1895.9 63.421 Q1900.08 67.4314 1907.49 67.4314 Q1911.78 67.4314 1915.79 66.3781 Q1919.84 65.3249 1923.81 63.2184 L1923.81 70.267 Q1919.8 71.9684 1915.59 72.8596 Q1911.38 73.7508 1907.04 73.7508 Q1896.19 73.7508 1889.83 67.4314 Q1883.51 61.1119 1883.51 50.3365 Q1883.51 39.1965 1889.5 32.6746 Q1895.54 26.1121 1905.75 26.1121 Q1914.9 26.1121 1920.21 32.0264 Q1925.56 37.9003 1925.56 48.0275 M1918.1 45.84 Q1918.02 39.7232 1914.66 36.0774 Q1911.34 32.4315 1905.83 32.4315 Q1899.59 32.4315 1895.82 35.9558 Q1892.09 39.4801 1891.53 45.8805 L1918.1 45.84 Z" fill="#000000" fill-rule="nonzero" fill-opacity="1" /><polyline clip-path="url(#clip571)" style="stroke:#009af9; stroke-linecap:round; stroke-linejoin:round; stroke-width:8; stroke-opacity:1; fill:none" points="309.539,1386.39 329.577,1386.39 349.614,1386.39 369.652,1386.38 389.689,1386.38 409.726,1386.37 429.764,1386.35 449.801,1386.32 469.839,1386.27 489.876,1386.21 509.914,1386.11 529.951,1385.96 549.988,1385.75 570.026,1385.44 590.063,1385.01 610.101,1384.4 630.138,1383.55 650.176,1382.39 670.213,1380.82 690.25,1378.71 710.288,1375.93 730.325,1372.3 750.363,1367.6 770.4,1361.61 790.438,1354.06 810.475,1344.65 830.512,1333.07 850.55,1319.01 870.587,1302.13 890.625,1282.16 910.662,1258.85 930.7,1232.01 950.737,1201.59 970.774,1167.62 990.812,1130.32 1010.85,1090.08 1030.89,1047.49 1050.92,1003.31 1070.96,958.51 1091,914.232 1111.04,871.728 1131.07,832.329 1151.11,797.373 1171.15,768.133 1191.19,745.741 1211.22,731.113 1231.26,724.893 1251.3,727.401 1271.34,738.608 1291.37,758.135 1311.41,785.276 1331.45,819.036 1351.49,858.196 1371.52,901.391 1391.56,947.184 1411.6,994.155 1431.64,1040.97 1451.67,1086.43 1471.71,1129.56 1491.75,1169.57 1511.79,1205.92 1531.82,1238.3 1551.86,1266.58 1571.9,1290.84 1591.93,1311.27 1611.97,1328.17 1632.01,1341.91 1652.05,1352.9 1672.08,1361.53 1692.12,1368.2 1712.16,1373.27 1732.2,1377.07 1752.23,1379.86 1772.27,1381.88 1792.31,1383.32 1812.35,1384.33 1832.38,1385.03 1852.42,1385.51 1872.46,1385.82 1892.5,1386.03 1912.53,1386.17 1932.57,1386.26 1952.61,1386.31 1972.65,1386.35 1992.68,1386.37 2012.72,1386.38 2032.76,1386.39 2052.8,1386.39 2072.83,1386.39 2092.87,1386.39 2112.91,1386.39 2132.95,1386.4 2152.98,1386.4 2173.02,1386.4 2193.06,1386.4 2213.1,1386.4 2233.13,1386.4 2253.17,1386.4 2273.21,1386.4 2293.24,1386.4 "/>
<polyline clip-path="url(#clip571)" style="stroke:#e26f46; stroke-linecap:round; stroke-linejoin:round; stroke-width:8; stroke-opacity:1; fill:none" points="309.539,1386.4 329.577,1386.4 349.614,1386.4 369.652,1386.4 389.689,1386.4 409.726,1386.4 429.764,1386.4 449.801,1386.4 469.839,1386.4 489.876,1386.4 509.914,1386.4 529.951,1386.4 549.988,1386.4 570.026,1386.4 590.063,1386.4 610.101,1386.4 630.138,1386.4 650.176,1386.4 670.213,1386.4 690.25,1386.4 710.288,1386.4 730.325,1386.4 750.363,1386.4 770.4,1386.4 790.438,1386.4 810.475,1386.4 830.512,1386.4 850.55,1386.4 870.587,1386.4 890.625,1386.39 910.662,1386.39 930.7,1386.39 950.737,1386.38 970.774,1386.37 990.812,1386.34 1010.85,1386.3 1030.89,1386.2 1050.92,1386.03 1070.96,1385.72 1091,1385.18 1111.04,1384.25 1131.07,1382.7 1151.11,1380.17 1171.15,1376.15 1191.19,1369.93 1211.22,1360.55 1231.26,1346.82 1251.3,1327.29 1271.34,1300.33 1291.37,1264.25 1311.41,1217.53 1331.45,1159.04 1351.49,1088.41 1371.52,1006.34 1391.56,914.803 1411.6,817.257 1431.64,718.502 1451.67,624.402 1471.71,541.341 1491.75,475.518 1511.79,432.184 1531.82,414.939 1551.86,425.235 1571.9,462.173 1591.93,522.638 1611.97,601.736 1632.01,693.459 1652.05,791.438 1672.08,889.662 1692.12,983.051 1712.16,1067.82 1732.2,1141.59 1752.23,1203.35 1772.27,1253.19 1792.31,1292.04 1812.35,1321.32 1832.38,1342.7 1852.42,1357.82 1872.46,1368.2 1892.5,1375.1 1912.53,1379.57 1932.57,1382.38 1952.61,1384.09 1972.65,1385.11 1992.68,1385.69 2012.72,1386.02 2032.76,1386.2 2052.8,1386.3 2072.83,1386.35 2092.87,1386.37 2112.91,1386.38 2132.95,1386.39 2152.98,1386.39 2173.02,1386.39 2193.06,1386.4 2213.1,1386.4 2233.13,1386.4 2253.17,1386.4 2273.21,1386.4 2293.24,1386.4 "/>
<polyline clip-path="url(#clip571)" style="stroke:#3da44d; stroke-linecap:round; stroke-linejoin:round; stroke-width:8; stroke-opacity:1; fill:none" points="309.539,1386.4 329.577,1386.4 349.614,1386.4 369.652,1386.4 389.689,1386.4 409.726,1386.4 429.764,1386.4 449.801,1386.4 469.839,1386.4 489.876,1386.4 509.914,1386.4 529.951,1386.4 549.988,1386.4 570.026,1386.4 590.063,1386.4 610.101,1386.4 630.138,1386.4 650.176,1386.4 670.213,1386.4 690.25,1386.4 710.288,1386.4 730.325,1386.4 750.363,1386.4 770.4,1386.4 790.438,1386.4 810.475,1386.4 830.512,1386.4 850.55,1386.4 870.587,1386.4 890.625,1386.4 910.662,1386.4 930.7,1386.4 950.737,1386.4 970.774,1386.4 990.812,1386.4 1010.85,1386.4 1030.89,1386.4 1050.92,1386.4 1070.96,1386.4 1091,1386.4 1111.04,1386.4 1131.07,1386.39 1151.11,1386.39 1171.15,1386.39 1191.19,1386.38 1211.22,1386.35 1231.26,1386.29 1251.3,1386.15 1271.34,1385.85 1291.37,1385.25 1311.41,1384.07 1331.45,1381.85 1351.49,1377.84 1371.52,1370.9 1391.56,1359.37 1411.6,1341.06 1431.64,1313.22 1451.67,1272.74 1471.71,1216.56 1491.75,1142.24 1511.79,1048.72 1531.82,937.08 1551.86,811.208 1571.9,677.966 1591.93,546.87 1611.97,429.097 1632.01,335.959 1652.05,277.125 1672.08,258.959 1692.12,283.388 1712.16,347.564 1732.2,444.413 1752.23,563.915 1772.27,694.805 1792.31,826.289 1812.35,949.428 1832.38,1057.96 1852.42,1148.54 1872.46,1220.39 1892.5,1274.73 1912.53,1313.99 1932.57,1341.13 1952.61,1359.11 1972.65,1370.54 1992.68,1377.51 2012.72,1381.59 2032.76,1383.89 2052.8,1385.13 2072.83,1385.78 2092.87,1386.11 2112.91,1386.27 2132.95,1386.34 2152.98,1386.37 2173.02,1386.39 2193.06,1386.39 2213.1,1386.39 2233.13,1386.4 2253.17,1386.4 2273.21,1386.4 2293.24,1386.4 "/>
<polyline clip-path="url(#clip571)" style="stroke:#c271d2; stroke-linecap:round; stroke-linejoin:round; stroke-width:8; stroke-opacity:1; fill:none" points="309.539,1386.4 329.577,1386.4 349.614,1386.4 369.652,1386.4 389.689,1386.4 409.726,1386.4 429.764,1386.4 449.801,1386.4 469.839,1386.4 489.876,1386.4 509.914,1386.4 529.951,1386.4 549.988,1386.4 570.026,1386.4 590.063,1386.4 610.101,1386.4 630.138,1386.4 650.176,1386.4 670.213,1386.4 690.25,1386.4 710.288,1386.4 730.325,1386.4 750.363,1386.4 770.4,1386.4 790.438,1386.4 810.475,1386.4 830.512,1386.4 850.55,1386.4 870.587,1386.4 890.625,1386.4 910.662,1386.4 930.7,1386.4 950.737,1386.4 970.774,1386.4 990.812,1386.4 1010.85,1386.4 1030.89,1386.4 1050.92,1386.4 1070.96,1386.4 1091,1386.4 1111.04,1386.4 1131.07,1386.4 1151.11,1386.4 1171.15,1386.4 1191.19,1386.4 1211.22,1386.4 1231.26,1386.39 1251.3,1386.39 1271.34,1386.39 1291.37,1386.37 1311.41,1386.34 1331.45,1386.26 1351.49,1386.06 1371.52,1385.64 1391.56,1384.75 1411.6,1382.96 1431.64,1379.55 1451.67,1373.31 1471.71,1362.47 1491.75,1344.51 1511.79,1316.2 1531.82,1273.74 1551.86,1213.28 1571.9,1131.67 1591.93,1027.46 1611.97,902.002 1632.01,760.282 1652.05,611.197 1672.08,466.979 1692.12,341.712 1712.16,249.119 1732.2,200.107 1752.23,200.646 1772.27,250.579 1792.31,343.668 1812.35,468.877 1832.38,612.514 1852.42,760.672 1872.46,901.361 1892.5,1025.92 1912.53,1129.52 1932.57,1210.86 1952.61,1271.37 1972.65,1314.11 1992.68,1342.82 2012.72,1361.2 2032.76,1372.43 2052.8,1378.96 2072.83,1382.6 2092.87,1384.54 2112.91,1385.52 2132.95,1386 2152.98,1386.23 2173.02,1386.33 2193.06,1386.37 2213.1,1386.38 2233.13,1386.39 2253.17,1386.39 2273.21,1386.4 2293.24,1386.4 "/>
<polyline clip-path="url(#clip571)" style="stroke:#ac8d18; stroke-linecap:round; stroke-linejoin:round; stroke-width:8; stroke-opacity:1; fill:none" points="309.539,1386.4 329.577,1386.4 349.614,1386.4 369.652,1386.4 389.689,1386.4 409.726,1386.4 429.764,1386.4 449.801,1386.4 469.839,1386.4 489.876,1386.4 509.914,1386.4 529.951,1386.4 549.988,1386.4 570.026,1386.4 590.063,1386.4 610.101,1386.4 630.138,1386.4 650.176,1386.4 670.213,1386.4 690.25,1386.4 710.288,1386.4 730.325,1386.4 750.363,1386.4 770.4,1386.4 790.438,1386.4 810.475,1386.4 830.512,1386.4 850.55,1386.4 870.587,1386.4 890.625,1386.4 910.662,1386.4 930.7,1386.4 950.737,1386.4 970.774,1386.4 990.812,1386.4 1010.85,1386.4 1030.89,1386.4 1050.92,1386.4 1070.96,1386.4 1091,1386.4 1111.04,1386.4 1131.07,1386.4 1151.11,1386.4 1171.15,1386.4 1191.19,1386.4 1211.22,1386.4 1231.26,1386.4 1251.3,1386.4 1271.34,1386.39 1291.37,1386.39 1311.41,1386.39 1331.45,1386.38 1351.49,1386.35 1371.52,1386.27 1391.56,1386.1 1411.6,1385.7 1431.64,1384.85 1451.67,1383.12 1471.71,1379.75 1491.75,1373.51 1511.79,1362.51 1531.82,1344.09 1551.86,1314.78 1571.9,1270.49 1591.93,1207.07 1611.97,1121.14 1632.01,1011.26 1652.05,879.12 1672.08,730.444 1692.12,575.257 1712.16,427.126 1732.2,301.38 1752.23,212.559 1772.27,171.661 1792.31,183.901 1812.35,247.624 1832.38,354.665 1852.42,492.071 1872.46,644.666 1892.5,797.77 1912.53,939.407 1932.57,1061.58 1952.61,1160.51 1972.65,1236.06 1992.68,1290.64 2012.72,1328.02 2032.76,1352.33 2052.8,1367.37 2072.83,1376.23 2092.87,1381.19 2112.91,1383.85 2132.95,1385.2 2152.98,1385.86 2173.02,1386.16 2193.06,1386.3 2213.1,1386.36 2233.13,1386.38 2253.17,1386.39 2273.21,1386.39 2293.24,1386.4 "/>
<polyline clip-path="url(#clip571)" style="stroke:#00a9ad; stroke-linecap:round; stroke-linejoin:round; stroke-width:8; stroke-opacity:1; fill:none" points="309.539,1386.4 329.577,1386.4 349.614,1386.4 369.652,1386.4 389.689,1386.4 409.726,1386.4 429.764,1386.4 449.801,1386.4 469.839,1386.4 489.876,1386.4 509.914,1386.4 529.951,1386.4 549.988,1386.4 570.026,1386.4 590.063,1386.4 610.101,1386.4 630.138,1386.4 650.176,1386.4 670.213,1386.4 690.25,1386.4 710.288,1386.4 730.325,1386.4 750.363,1386.4 770.4,1386.4 790.438,1386.4 810.475,1386.4 830.512,1386.4 850.55,1386.4 870.587,1386.4 890.625,1386.4 910.662,1386.4 930.7,1386.4 950.737,1386.4 970.774,1386.4 990.812,1386.4 1010.85,1386.4 1030.89,1386.4 1050.92,1386.4 1070.96,1386.4 1091,1386.4 1111.04,1386.4 1131.07,1386.4 1151.11,1386.4 1171.15,1386.4 1191.19,1386.4 1211.22,1386.4 1231.26,1386.4 1251.3,1386.4 1271.34,1386.4 1291.37,1386.39 1311.41,1386.39 1331.45,1386.39 1351.49,1386.38 1371.52,1386.34 1391.56,1386.26 1411.6,1386.06 1431.64,1385.62 1451.67,1384.68 1471.71,1382.75 1491.75,1379.02 1511.79,1372.12 1531.82,1360.01 1551.86,1339.81 1571.9,1307.83 1591.93,1259.81 1611.97,1191.53 1632.01,1099.79 1652.05,983.601 1672.08,845.458 1692.12,692.164 1712.16,534.906 1732.2,388.244 1752.23,268.039 1772.27,188.679 1792.31,160.256 1812.35,186.454 1832.38,263.768 1852.42,382.272 1872.46,527.71 1892.5,684.3 1912.53,837.499 1932.57,976.063 1952.61,1093.07 1972.65,1185.88 1992.68,1255.32 2012.72,1304.45 2032.76,1337.4 2052.8,1358.38 2072.83,1371.07 2092.87,1378.38 2112.91,1382.39 2132.95,1384.48 2152.98,1385.52 2173.02,1386.01 2193.06,1386.23 2213.1,1386.33 2233.13,1386.37 2253.17,1386.39 2273.21,1386.39 2293.24,1386.39 "/>
<path clip-path="url(#clip570)" d="M320.119 529.676 L664.28 529.676 L664.28 166.796 L320.119 166.796  Z" fill="#ffffff" fill-rule="evenodd" fill-opacity="1"/>
<polyline clip-path="url(#clip570)" style="stroke:#000000; stroke-linecap:round; stroke-linejoin:round; stroke-width:4; stroke-opacity:1; fill:none" points="320.119,529.676 664.28,529.676 664.28,166.796 320.119,166.796 320.119,529.676 "/>
<polyline clip-path="url(#clip570)" style="stroke:#009af9; stroke-linecap:round; stroke-linejoin:round; stroke-width:8; stroke-opacity:1; fill:none" points="343.483,218.636 483.665,218.636 "/>
<path clip-path="url(#clip570)" d="M522.861 205.962 L516.519 223.161 L529.227 223.161 L522.861 205.962 M520.223 201.356 L525.523 201.356 L538.695 235.916 L533.834 235.916 L530.685 227.05 L515.107 227.05 L511.959 235.916 L507.028 235.916 L520.223 201.356 Z" fill="#000000" fill-rule="nonzero" fill-opacity="1" /><path clip-path="url(#clip570)" d="M560.616 222.652 Q560.616 218.022 558.695 215.476 Q556.796 212.93 553.347 212.93 Q549.921 212.93 548 215.476 Q546.102 218.022 546.102 222.652 Q546.102 227.258 548 229.805 Q549.921 232.351 553.347 232.351 Q556.796 232.351 558.695 229.805 Q560.616 227.258 560.616 222.652 M564.875 232.698 Q564.875 239.318 561.935 242.536 Q558.996 245.777 552.931 245.777 Q550.685 245.777 548.695 245.43 Q546.704 245.105 544.829 244.411 L544.829 240.268 Q546.704 241.286 548.533 241.772 Q550.361 242.258 552.259 242.258 Q556.449 242.258 558.533 240.059 Q560.616 237.883 560.616 233.462 L560.616 231.356 Q559.296 233.647 557.236 234.781 Q555.176 235.916 552.306 235.916 Q547.537 235.916 544.621 232.281 Q541.704 228.647 541.704 222.652 Q541.704 216.633 544.621 212.999 Q547.537 209.365 552.306 209.365 Q555.176 209.365 557.236 210.499 Q559.296 211.633 560.616 213.925 L560.616 209.99 L564.875 209.99 L564.875 232.698 Z" fill="#000000" fill-rule="nonzero" fill-opacity="1" /><path clip-path="url(#clip570)" d="M595.824 221.888 L595.824 223.971 L576.241 223.971 Q576.519 228.369 578.88 230.684 Q581.264 232.976 585.5 232.976 Q587.954 232.976 590.245 232.374 Q592.56 231.772 594.829 230.569 L594.829 234.596 Q592.537 235.568 590.13 236.078 Q587.722 236.587 585.245 236.587 Q579.042 236.587 575.407 232.976 Q571.796 229.365 571.796 223.207 Q571.796 216.842 575.222 213.115 Q578.671 209.365 584.505 209.365 Q589.736 209.365 592.768 212.745 Q595.824 216.101 595.824 221.888 M591.565 220.638 Q591.518 217.143 589.597 215.059 Q587.699 212.976 584.551 212.976 Q580.986 212.976 578.833 214.99 Q576.704 217.004 576.38 220.661 L591.565 220.638 Z" fill="#000000" fill-rule="nonzero" fill-opacity="1" /><path clip-path="url(#clip570)" d="M619.296 231.981 L626.935 231.981 L626.935 205.615 L618.625 207.282 L618.625 203.022 L626.889 201.356 L631.565 201.356 L631.565 231.981 L639.203 231.981 L639.203 235.916 L619.296 235.916 L619.296 231.981 Z" fill="#000000" fill-rule="nonzero" fill-opacity="1" /><polyline clip-path="url(#clip570)" style="stroke:#e26f46; stroke-linecap:round; stroke-linejoin:round; stroke-width:8; stroke-opacity:1; fill:none" points="343.483,270.476 483.665,270.476 "/>
<path clip-path="url(#clip570)" d="M522.861 257.802 L516.519 275.001 L529.227 275.001 L522.861 257.802 M520.223 253.196 L525.523 253.196 L538.695 287.756 L533.834 287.756 L530.685 278.89 L515.107 278.89 L511.959 287.756 L507.028 287.756 L520.223 253.196 Z" fill="#000000" fill-rule="nonzero" fill-opacity="1" /><path clip-path="url(#clip570)" d="M560.616 274.492 Q560.616 269.862 558.695 267.316 Q556.796 264.77 553.347 264.77 Q549.921 264.77 548 267.316 Q546.102 269.862 546.102 274.492 Q546.102 279.098 548 281.645 Q549.921 284.191 553.347 284.191 Q556.796 284.191 558.695 281.645 Q560.616 279.098 560.616 274.492 M564.875 284.538 Q564.875 291.158 561.935 294.376 Q558.996 297.617 552.931 297.617 Q550.685 297.617 548.695 297.27 Q546.704 296.945 544.829 296.251 L544.829 292.108 Q546.704 293.126 548.533 293.612 Q550.361 294.098 552.259 294.098 Q556.449 294.098 558.533 291.899 Q560.616 289.723 560.616 285.302 L560.616 283.196 Q559.296 285.487 557.236 286.621 Q555.176 287.756 552.306 287.756 Q547.537 287.756 544.621 284.121 Q541.704 280.487 541.704 274.492 Q541.704 268.473 544.621 264.839 Q547.537 261.205 552.306 261.205 Q555.176 261.205 557.236 262.339 Q559.296 263.473 560.616 265.765 L560.616 261.83 L564.875 261.83 L564.875 284.538 Z" fill="#000000" fill-rule="nonzero" fill-opacity="1" /><path clip-path="url(#clip570)" d="M595.824 273.728 L595.824 275.811 L576.241 275.811 Q576.519 280.209 578.88 282.524 Q581.264 284.816 585.5 284.816 Q587.954 284.816 590.245 284.214 Q592.56 283.612 594.829 282.409 L594.829 286.436 Q592.537 287.408 590.13 287.918 Q587.722 288.427 585.245 288.427 Q579.042 288.427 575.407 284.816 Q571.796 281.205 571.796 275.047 Q571.796 268.682 575.222 264.955 Q578.671 261.205 584.505 261.205 Q589.736 261.205 592.768 264.585 Q595.824 267.941 595.824 273.728 M591.565 272.478 Q591.518 268.983 589.597 266.899 Q587.699 264.816 584.551 264.816 Q580.986 264.816 578.833 266.83 Q576.704 268.844 576.38 272.501 L591.565 272.478 Z" fill="#000000" fill-rule="nonzero" fill-opacity="1" /><path clip-path="url(#clip570)" d="M622.514 283.821 L638.833 283.821 L638.833 287.756 L616.889 287.756 L616.889 283.821 Q619.551 281.066 624.134 276.436 Q628.741 271.784 629.921 270.441 Q632.166 267.918 633.046 266.182 Q633.949 264.423 633.949 262.733 Q633.949 259.978 632.004 258.242 Q630.083 256.506 626.981 256.506 Q624.782 256.506 622.329 257.27 Q619.898 258.034 617.12 259.585 L617.12 254.862 Q619.944 253.728 622.398 253.149 Q624.852 252.571 626.889 252.571 Q632.259 252.571 635.453 255.256 Q638.648 257.941 638.648 262.432 Q638.648 264.561 637.838 266.483 Q637.051 268.381 634.944 270.973 Q634.365 271.645 631.264 274.862 Q628.162 278.057 622.514 283.821 Z" fill="#000000" fill-rule="nonzero" fill-opacity="1" /><polyline clip-path="url(#clip570)" style="stroke:#3da44d; stroke-linecap:round; stroke-linejoin:round; stroke-width:8; stroke-opacity:1; fill:none" points="343.483,322.316 483.665,322.316 "/>
<path clip-path="url(#clip570)" d="M522.861 309.642 L516.519 326.841 L529.227 326.841 L522.861 309.642 M520.223 305.036 L525.523 305.036 L538.695 339.596 L533.834 339.596 L530.685 330.73 L515.107 330.73 L511.959 339.596 L507.028 339.596 L520.223 305.036 Z" fill="#000000" fill-rule="nonzero" fill-opacity="1" /><path clip-path="url(#clip570)" d="M560.616 326.332 Q560.616 321.702 558.695 319.156 Q556.796 316.61 553.347 316.61 Q549.921 316.61 548 319.156 Q546.102 321.702 546.102 326.332 Q546.102 330.938 548 333.485 Q549.921 336.031 553.347 336.031 Q556.796 336.031 558.695 333.485 Q560.616 330.938 560.616 326.332 M564.875 336.378 Q564.875 342.998 561.935 346.216 Q558.996 349.457 552.931 349.457 Q550.685 349.457 548.695 349.11 Q546.704 348.785 544.829 348.091 L544.829 343.948 Q546.704 344.966 548.533 345.452 Q550.361 345.938 552.259 345.938 Q556.449 345.938 558.533 343.739 Q560.616 341.563 560.616 337.142 L560.616 335.036 Q559.296 337.327 557.236 338.461 Q555.176 339.596 552.306 339.596 Q547.537 339.596 544.621 335.961 Q541.704 332.327 541.704 326.332 Q541.704 320.313 544.621 316.679 Q547.537 313.045 552.306 313.045 Q555.176 313.045 557.236 314.179 Q559.296 315.313 560.616 317.605 L560.616 313.67 L564.875 313.67 L564.875 336.378 Z" fill="#000000" fill-rule="nonzero" fill-opacity="1" /><path clip-path="url(#clip570)" d="M595.824 325.568 L595.824 327.651 L576.241 327.651 Q576.519 332.049 578.88 334.364 Q581.264 336.656 585.5 336.656 Q587.954 336.656 590.245 336.054 Q592.56 335.452 594.829 334.249 L594.829 338.276 Q592.537 339.248 590.13 339.758 Q587.722 340.267 585.245 340.267 Q579.042 340.267 575.407 336.656 Q571.796 333.045 571.796 326.887 Q571.796 320.522 575.222 316.795 Q578.671 313.045 584.505 313.045 Q589.736 313.045 592.768 316.425 Q595.824 319.781 595.824 325.568 M591.565 324.318 Q591.518 320.823 589.597 318.739 Q587.699 316.656 584.551 316.656 Q580.986 316.656 578.833 318.67 Q576.704 320.684 576.38 324.341 L591.565 324.318 Z" fill="#000000" fill-rule="nonzero" fill-opacity="1" /><path clip-path="url(#clip570)" d="M632.653 320.962 Q636.009 321.679 637.884 323.948 Q639.782 326.216 639.782 329.549 Q639.782 334.665 636.264 337.466 Q632.745 340.267 626.264 340.267 Q624.088 340.267 621.773 339.827 Q619.481 339.411 617.028 338.554 L617.028 334.04 Q618.972 335.174 621.287 335.753 Q623.602 336.332 626.125 336.332 Q630.523 336.332 632.815 334.596 Q635.129 332.86 635.129 329.549 Q635.129 326.494 632.977 324.781 Q630.847 323.045 627.028 323.045 L623 323.045 L623 319.202 L627.213 319.202 Q630.662 319.202 632.49 317.837 Q634.319 316.448 634.319 313.855 Q634.319 311.193 632.421 309.781 Q630.546 308.346 627.028 308.346 Q625.106 308.346 622.907 308.763 Q620.708 309.179 618.069 310.059 L618.069 305.892 Q620.731 305.151 623.046 304.781 Q625.384 304.411 627.444 304.411 Q632.768 304.411 635.87 306.841 Q638.972 309.249 638.972 313.369 Q638.972 316.239 637.328 318.23 Q635.685 320.198 632.653 320.962 Z" fill="#000000" fill-rule="nonzero" fill-opacity="1" /><polyline clip-path="url(#clip570)" style="stroke:#c271d2; stroke-linecap:round; stroke-linejoin:round; stroke-width:8; stroke-opacity:1; fill:none" points="343.483,374.156 483.665,374.156 "/>
<path clip-path="url(#clip570)" d="M522.861 361.482 L516.519 378.681 L529.227 378.681 L522.861 361.482 M520.223 356.876 L525.523 356.876 L538.695 391.436 L533.834 391.436 L530.685 382.57 L515.107 382.57 L511.959 391.436 L507.028 391.436 L520.223 356.876 Z" fill="#000000" fill-rule="nonzero" fill-opacity="1" /><path clip-path="url(#clip570)" d="M560.616 378.172 Q560.616 373.542 558.695 370.996 Q556.796 368.45 553.347 368.45 Q549.921 368.45 548 370.996 Q546.102 373.542 546.102 378.172 Q546.102 382.778 548 385.325 Q549.921 387.871 553.347 387.871 Q556.796 387.871 558.695 385.325 Q560.616 382.778 560.616 378.172 M564.875 388.218 Q564.875 394.838 561.935 398.056 Q558.996 401.297 552.931 401.297 Q550.685 401.297 548.695 400.95 Q546.704 400.625 544.829 399.931 L544.829 395.788 Q546.704 396.806 548.533 397.292 Q550.361 397.778 552.259 397.778 Q556.449 397.778 558.533 395.579 Q560.616 393.403 560.616 388.982 L560.616 386.876 Q559.296 389.167 557.236 390.301 Q555.176 391.436 552.306 391.436 Q547.537 391.436 544.621 387.801 Q541.704 384.167 541.704 378.172 Q541.704 372.153 544.621 368.519 Q547.537 364.885 552.306 364.885 Q555.176 364.885 557.236 366.019 Q559.296 367.153 560.616 369.445 L560.616 365.51 L564.875 365.51 L564.875 388.218 Z" fill="#000000" fill-rule="nonzero" fill-opacity="1" /><path clip-path="url(#clip570)" d="M595.824 377.408 L595.824 379.491 L576.241 379.491 Q576.519 383.889 578.88 386.204 Q581.264 388.496 585.5 388.496 Q587.954 388.496 590.245 387.894 Q592.56 387.292 594.829 386.089 L594.829 390.116 Q592.537 391.088 590.13 391.598 Q587.722 392.107 585.245 392.107 Q579.042 392.107 575.407 388.496 Q571.796 384.885 571.796 378.727 Q571.796 372.362 575.222 368.635 Q578.671 364.885 584.505 364.885 Q589.736 364.885 592.768 368.265 Q595.824 371.621 595.824 377.408 M591.565 376.158 Q591.518 372.663 589.597 370.579 Q587.699 368.496 584.551 368.496 Q580.986 368.496 578.833 370.51 Q576.704 372.524 576.38 376.181 L591.565 376.158 Z" fill="#000000" fill-rule="nonzero" fill-opacity="1" /><path clip-path="url(#clip570)" d="M631.333 360.95 L619.528 379.399 L631.333 379.399 L631.333 360.95 M630.106 356.876 L635.986 356.876 L635.986 379.399 L640.916 379.399 L640.916 383.288 L635.986 383.288 L635.986 391.436 L631.333 391.436 L631.333 383.288 L615.731 383.288 L615.731 378.774 L630.106 356.876 Z" fill="#000000" fill-rule="nonzero" fill-opacity="1" /><polyline clip-path="url(#clip570)" style="stroke:#ac8d18; stroke-linecap:round; stroke-linejoin:round; stroke-width:8; stroke-opacity:1; fill:none" points="343.483,425.996 483.665,425.996 "/>
<path clip-path="url(#clip570)" d="M522.861 413.322 L516.519 430.521 L529.227 430.521 L522.861 413.322 M520.223 408.716 L525.523 408.716 L538.695 443.276 L533.834 443.276 L530.685 434.41 L515.107 434.41 L511.959 443.276 L507.028 443.276 L520.223 408.716 Z" fill="#000000" fill-rule="nonzero" fill-opacity="1" /><path clip-path="url(#clip570)" d="M560.616 430.012 Q560.616 425.382 558.695 422.836 Q556.796 420.29 553.347 420.29 Q549.921 420.29 548 422.836 Q546.102 425.382 546.102 430.012 Q546.102 434.618 548 437.165 Q549.921 439.711 553.347 439.711 Q556.796 439.711 558.695 437.165 Q560.616 434.618 560.616 430.012 M564.875 440.058 Q564.875 446.678 561.935 449.896 Q558.996 453.137 552.931 453.137 Q550.685 453.137 548.695 452.79 Q546.704 452.465 544.829 451.771 L544.829 447.628 Q546.704 448.646 548.533 449.132 Q550.361 449.618 552.259 449.618 Q556.449 449.618 558.533 447.419 Q560.616 445.243 560.616 440.822 L560.616 438.716 Q559.296 441.007 557.236 442.141 Q555.176 443.276 552.306 443.276 Q547.537 443.276 544.621 439.641 Q541.704 436.007 541.704 430.012 Q541.704 423.993 544.621 420.359 Q547.537 416.725 552.306 416.725 Q555.176 416.725 557.236 417.859 Q559.296 418.993 560.616 421.285 L560.616 417.35 L564.875 417.35 L564.875 440.058 Z" fill="#000000" fill-rule="nonzero" fill-opacity="1" /><path clip-path="url(#clip570)" d="M595.824 429.248 L595.824 431.331 L576.241 431.331 Q576.519 435.729 578.88 438.044 Q581.264 440.336 585.5 440.336 Q587.954 440.336 590.245 439.734 Q592.56 439.132 594.829 437.929 L594.829 441.956 Q592.537 442.928 590.13 443.438 Q587.722 443.947 585.245 443.947 Q579.042 443.947 575.407 440.336 Q571.796 436.725 571.796 430.567 Q571.796 424.202 575.222 420.475 Q578.671 416.725 584.505 416.725 Q589.736 416.725 592.768 420.105 Q595.824 423.461 595.824 429.248 M591.565 427.998 Q591.518 424.503 589.597 422.419 Q587.699 420.336 584.551 420.336 Q580.986 420.336 578.833 422.35 Q576.704 424.364 576.38 428.021 L591.565 427.998 Z" fill="#000000" fill-rule="nonzero" fill-opacity="1" /><path clip-path="url(#clip570)" d="M618.532 408.716 L636.889 408.716 L636.889 412.651 L622.815 412.651 L622.815 421.123 Q623.833 420.776 624.852 420.614 Q625.87 420.429 626.889 420.429 Q632.676 420.429 636.055 423.6 Q639.435 426.771 639.435 432.188 Q639.435 437.766 635.963 440.868 Q632.49 443.947 626.171 443.947 Q623.995 443.947 621.727 443.577 Q619.481 443.206 617.074 442.466 L617.074 437.766 Q619.157 438.901 621.379 439.456 Q623.602 440.012 626.078 440.012 Q630.083 440.012 632.421 437.905 Q634.759 435.799 634.759 432.188 Q634.759 428.577 632.421 426.47 Q630.083 424.364 626.078 424.364 Q624.203 424.364 622.329 424.78 Q620.477 425.197 618.532 426.077 L618.532 408.716 Z" fill="#000000" fill-rule="nonzero" fill-opacity="1" /><polyline clip-path="url(#clip570)" style="stroke:#00a9ad; stroke-linecap:round; stroke-linejoin:round; stroke-width:8; stroke-opacity:1; fill:none" points="343.483,477.836 483.665,477.836 "/>
<path clip-path="url(#clip570)" d="M522.861 465.162 L516.519 482.361 L529.227 482.361 L522.861 465.162 M520.223 460.556 L525.523 460.556 L538.695 495.116 L533.834 495.116 L530.685 486.25 L515.107 486.25 L511.959 495.116 L507.028 495.116 L520.223 460.556 Z" fill="#000000" fill-rule="nonzero" fill-opacity="1" /><path clip-path="url(#clip570)" d="M560.616 481.852 Q560.616 477.222 558.695 474.676 Q556.796 472.13 553.347 472.13 Q549.921 472.13 548 474.676 Q546.102 477.222 546.102 481.852 Q546.102 486.458 548 489.005 Q549.921 491.551 553.347 491.551 Q556.796 491.551 558.695 489.005 Q560.616 486.458 560.616 481.852 M564.875 491.898 Q564.875 498.518 561.935 501.736 Q558.996 504.977 552.931 504.977 Q550.685 504.977 548.695 504.63 Q546.704 504.305 544.829 503.611 L544.829 499.468 Q546.704 500.486 548.533 500.972 Q550.361 501.458 552.259 501.458 Q556.449 501.458 558.533 499.259 Q560.616 497.083 560.616 492.662 L560.616 490.556 Q559.296 492.847 557.236 493.981 Q555.176 495.116 552.306 495.116 Q547.537 495.116 544.621 491.481 Q541.704 487.847 541.704 481.852 Q541.704 475.833 544.621 472.199 Q547.537 468.565 552.306 468.565 Q555.176 468.565 557.236 469.699 Q559.296 470.833 560.616 473.125 L560.616 469.19 L564.875 469.19 L564.875 491.898 Z" fill="#000000" fill-rule="nonzero" fill-opacity="1" /><path clip-path="url(#clip570)" d="M595.824 481.088 L595.824 483.171 L576.241 483.171 Q576.519 487.569 578.88 489.884 Q581.264 492.176 585.5 492.176 Q587.954 492.176 590.245 491.574 Q592.56 490.972 594.829 489.769 L594.829 493.796 Q592.537 494.768 590.13 495.278 Q587.722 495.787 585.245 495.787 Q579.042 495.787 575.407 492.176 Q571.796 488.565 571.796 482.407 Q571.796 476.042 575.222 472.315 Q578.671 468.565 584.505 468.565 Q589.736 468.565 592.768 471.945 Q595.824 475.301 595.824 481.088 M591.565 479.838 Q591.518 476.343 589.597 474.259 Q587.699 472.176 584.551 472.176 Q580.986 472.176 578.833 474.19 Q576.704 476.204 576.38 479.861 L591.565 479.838 Z" fill="#000000" fill-rule="nonzero" fill-opacity="1" /><path clip-path="url(#clip570)" d="M629.065 475.972 Q625.916 475.972 624.065 478.125 Q622.236 480.278 622.236 484.028 Q622.236 487.755 624.065 489.931 Q625.916 492.083 629.065 492.083 Q632.213 492.083 634.041 489.931 Q635.893 487.755 635.893 484.028 Q635.893 480.278 634.041 478.125 Q632.213 475.972 629.065 475.972 M638.347 461.32 L638.347 465.579 Q636.588 464.746 634.782 464.306 Q633 463.866 631.24 463.866 Q626.611 463.866 624.157 466.991 Q621.727 470.116 621.379 476.435 Q622.745 474.421 624.805 473.357 Q626.866 472.269 629.342 472.269 Q634.551 472.269 637.56 475.44 Q640.592 478.588 640.592 484.028 Q640.592 489.352 637.444 492.569 Q634.296 495.787 629.065 495.787 Q623.069 495.787 619.898 491.204 Q616.727 486.597 616.727 477.87 Q616.727 469.676 620.616 464.815 Q624.504 459.931 631.055 459.931 Q632.815 459.931 634.597 460.278 Q636.403 460.625 638.347 461.32 Z" fill="#000000" fill-rule="nonzero" fill-opacity="1" /></svg>
